<?xml version="1.0" encoding="utf-8"?>
<!-- Generator: Adobe Illustrator 23.0.6, SVG Export Plug-In . SVG Version: 6.00 Build 0)  -->
<svg version="1.1" id="Layer_1" xmlns="http://www.w3.org/2000/svg" xmlns:xlink="http://www.w3.org/1999/xlink" x="0px" y="0px"
	 viewBox="0 0 50 75" style="enable-background:new 0 0 50 75;" xml:space="preserve">
<style type="text/css">
	.st0{fill:#FCC200;}
	.st1{fill:#FFDD00;}
	.st2{fill:#FFCF00;}
	.st3{fill:#F7AA06;}
	.st4{fill:#EADDDD;}
	.st5{fill:#CC9005;}
	.st6{fill:#A97A05;}
	.st7{fill:#FBBB00;}
	.st8{fill:#C47F0B;}
</style>
<g>
	<g>
		<g>
			<path class="st0" d="M33.5,58.3v5c0,0.5-0.2,0.9-0.7,1.4c-0.1,0.1-0.3,0.2-0.4,0.4c-0.3,0.2-0.7,0.5-1.2,0.7
				c-0.1,0.1-0.3,0.1-0.4,0.2c-0.5,0.2-1.2,0.4-1.8,0.6c-0.1,0-0.3,0.1-0.4,0.1c-0.7,0.2-1.5,0.4-2.4,0.5c-0.1,0-0.3,0.1-0.4,0.1
				c-0.7,0.1-1.4,0.2-2.2,0.3c-0.1,0-0.3,0-0.4,0c-0.5,0.1-1,0.1-1.6,0.1c-0.1,0-0.3,0-0.4,0c-0.7,0-1.4,0.1-2.1,0.1
				c-0.1,0-0.3,0-0.4,0h-0.3c-0.7,0-1.3,0-1.9,0c-0.2,0-0.3,0-0.4,0c-0.6,0-1.3-0.1-1.9-0.1c-0.2,0-0.3,0-0.5,0
				c-0.4,0-0.8-0.1-1.2-0.1c-0.2,0-0.3,0-0.4-0.1c-0.5-0.1-1-0.1-1.5-0.2c-0.2,0-0.3-0.1-0.4-0.1c-0.4-0.1-0.8-0.2-1.2-0.3
				c-0.2,0-0.3-0.1-0.4-0.1c-0.5-0.1-0.9-0.3-1.4-0.4c-0.2,0-0.3-0.1-0.4-0.2c-0.5-0.2-0.9-0.3-1.2-0.5c-0.2-0.1-0.3-0.2-0.5-0.2
				c-0.4-0.2-0.7-0.4-1-0.6c-0.2-0.1-0.3-0.3-0.5-0.5c-0.3-0.3-0.4-0.7-0.4-1.1c0-1.5,0-5,0-5H33.5z"/>
			<path class="st1" d="M33.5,58.3c0,2.2-6.9,4.1-15.4,4.1c-8.5,0-15.4-1.8-15.4-4.1c0-2.2,6.9-4.1,15.4-4.1
				C26.6,54.3,33.5,56.1,33.5,58.3z"/>
			<path class="st2" d="M30.7,57.8c0,1.5-5.7,2.8-12.6,2.8S5.5,59.3,5.5,57.8c0-1.5,5.6-2.8,12.6-2.8S30.7,56.2,30.7,57.8z"/>
			<path class="st3" d="M5.9,58.5c1.4-1.2,6.3-2.1,12.2-2.1c5.9,0,10.9,0.9,12.2,2.1c0.3-0.2,0.4-0.5,0.4-0.7
				c0-1.5-5.7-2.8-12.6-2.8S5.5,56.2,5.5,57.8C5.5,58,5.6,58.2,5.9,58.5z"/>
			<g>
				<path class="st3" d="M3.6,60.6v4.3c-0.2-0.1-0.3-0.3-0.5-0.5v-3.8H3.6z"/>
				<path class="st3" d="M5,61.8v3.9c-0.2-0.1-0.3-0.2-0.5-0.2v-3.7H5z"/>
				<path class="st3" d="M6.7,62.6v3.8c-0.2,0-0.3-0.1-0.4-0.2v-3.7H6.7z"/>
				<path class="st3" d="M8.5,63.1v3.8c-0.2,0-0.3-0.1-0.4-0.1v-3.7H8.5z"/>
				<path class="st3" d="M10.2,63.6v3.7c-0.2,0-0.3-0.1-0.4-0.1v-3.6H10.2z"/>
				<path class="st3" d="M12.2,64v3.6c-0.2,0-0.3,0-0.4-0.1V64H12.2z"/>
				<path class="st3" d="M13.9,64v3.8c-0.2,0-0.3,0-0.5,0V64H13.9z"/>
				<path class="st3" d="M16.2,64v4c-0.2,0-0.3,0-0.4,0V64H16.2z"/>
				<path class="st3" d="M18.9,63.6v4.3c-0.1,0-0.3,0-0.4,0v-4.3H18.9z"/>
				<path class="st3" d="M21.4,63.1v4.7c-0.1,0-0.3,0-0.4,0v-4.7H21.4z"/>
				<path class="st3" d="M23.4,63.1v4.5c-0.1,0-0.3,0-0.4,0v-4.6H23.4z"/>
				<path class="st3" d="M26.1,62.6v4.7c-0.1,0-0.3,0.1-0.4,0.1v-4.8H26.1z"/>
				<path class="st3" d="M28.9,62.1v4.5c-0.1,0-0.3,0.1-0.4,0.1v-4.6H28.9z"/>
				<path class="st3" d="M31.2,60.9v4.9c-0.1,0.1-0.3,0.1-0.4,0.2v-5.1H31.2z"/>
				<path class="st3" d="M32.8,60.1v4.7c-0.1,0.1-0.3,0.2-0.4,0.4v-5H32.8z"/>
			</g>
			<path class="st4" d="M32.8,62.5c-0.1,0.1-0.3,0.2-0.4,0.4c-0.3,0.2-0.7,0.5-1.2,0.7c-0.1,0.1-0.3,0.1-0.4,0.2
				c-0.5,0.2-1.2,0.4-1.8,0.6c-0.1,0-0.3,0.1-0.4,0.1c-0.7,0.2-1.5,0.4-2.4,0.5c-0.1,0-0.3,0.1-0.4,0.1c-0.7,0.1-1.4,0.2-2.2,0.3
				c-0.1,0-0.3,0-0.4,0c-0.5,0.1-1,0.1-1.6,0.1c-0.1,0-0.3,0-0.4,0c-0.7,0-1.4,0.1-2.1,0.1c-0.1,0-0.3,0-0.4,0h-0.3
				c-0.7,0-1.3,0-1.9,0c-0.2,0-0.3,0-0.4,0c-0.6,0-1.3-0.1-1.9-0.1c-0.2,0-0.3,0-0.5,0c-0.4,0-0.8-0.1-1.2-0.1c-0.2,0-0.3,0-0.4-0.1
				c-0.5-0.1-1-0.1-1.5-0.2C10.1,65,9.9,65,9.8,65c-0.4-0.1-0.8-0.2-1.2-0.3c-0.2,0-0.3-0.1-0.4-0.1c-0.5-0.1-0.9-0.3-1.4-0.4
				c-0.2,0-0.3-0.1-0.4-0.2c-0.5-0.2-0.9-0.3-1.2-0.5c-0.2-0.1-0.3-0.2-0.5-0.2c-0.4-0.2-0.7-0.4-1-0.6c-0.2-0.1-0.3-0.3-0.5-0.5
				c-0.3-0.3-0.4-0.7-0.4-1.1c0,0.8,0,1.7,0,2.2c0,0.4,0.1,0.7,0.4,1.1c0.1,0.2,0.3,0.3,0.5,0.5c0.3,0.2,0.6,0.4,1,0.6
				c0.1,0.1,0.3,0.2,0.5,0.2c0.4,0.2,0.8,0.4,1.2,0.5c0.1,0.1,0.3,0.1,0.4,0.2c0.4,0.1,0.9,0.3,1.4,0.4c0.1,0,0.3,0.1,0.4,0.1
				c0.4,0.1,0.8,0.2,1.2,0.3c0.1,0,0.3,0.1,0.4,0.1c0.5,0.1,1,0.2,1.5,0.2c0.1,0,0.3,0,0.4,0.1c0.4,0,0.8,0.1,1.2,0.1
				c0.1,0,0.3,0,0.5,0c0.6,0.1,1.2,0.1,1.9,0.1c0.1,0,0.3,0,0.4,0c0.6,0,1.3,0,1.9,0h0.3c0.2,0,0.3,0,0.4,0c0.7,0,1.4,0,2.1-0.1
				c0.2,0,0.3,0,0.4,0c0.5,0,1.1-0.1,1.6-0.1c0.1,0,0.3,0,0.4,0c0.8-0.1,1.5-0.2,2.2-0.3c0.2,0,0.3-0.1,0.4-0.1
				c0.9-0.2,1.7-0.3,2.4-0.5c0.2,0,0.3-0.1,0.4-0.1c0.7-0.2,1.3-0.4,1.8-0.6c0.2-0.1,0.3-0.1,0.4-0.2c0.4-0.2,0.8-0.4,1.2-0.7
				c0.2-0.1,0.3-0.2,0.4-0.4c0.5-0.4,0.7-0.9,0.7-1.4v-2.2C33.5,61.6,33.2,62.1,32.8,62.5z"/>
		</g>
		<g>
			<path class="st0" d="M32.2,52.2v5c0,0.5-0.2,0.9-0.7,1.4c-0.1,0.1-0.3,0.2-0.4,0.4c-0.3,0.2-0.7,0.5-1.2,0.7
				c-0.1,0.1-0.3,0.1-0.4,0.2c-0.5,0.2-1.2,0.4-1.8,0.6c-0.1,0-0.3,0.1-0.4,0.1c-0.7,0.2-1.5,0.4-2.4,0.5c-0.1,0-0.3,0.1-0.4,0.1
				c-0.7,0.1-1.4,0.2-2.2,0.3c-0.1,0-0.3,0-0.4,0c-0.5,0.1-1,0.1-1.6,0.1c-0.1,0-0.3,0-0.4,0c-0.7,0-1.4,0.1-2.1,0.1
				c-0.1,0-0.3,0-0.4,0h-0.3c-0.7,0-1.3,0-1.9,0c-0.2,0-0.3,0-0.4,0c-0.6,0-1.3-0.1-1.9-0.1c-0.2,0-0.3,0-0.5,0
				c-0.4,0-0.8-0.1-1.2-0.1c-0.2,0-0.3,0-0.4-0.1c-0.5-0.1-1-0.1-1.5-0.2c-0.2,0-0.3-0.1-0.4-0.1C8,61,7.6,60.9,7.2,60.8
				c-0.2,0-0.3-0.1-0.4-0.1c-0.5-0.1-0.9-0.3-1.4-0.4c-0.2,0-0.3-0.1-0.4-0.2c-0.5-0.2-0.9-0.3-1.2-0.5c-0.2-0.1-0.3-0.2-0.5-0.2
				c-0.4-0.2-0.7-0.4-1-0.6c-0.2-0.1-0.3-0.3-0.5-0.5c-0.3-0.3-0.4-0.7-0.4-1.1c0-1.5,0-5,0-5H32.2z"/>
			<path class="st1" d="M32.2,52.2c0,2.2-6.9,4.1-15.4,4.1c-8.5,0-15.4-1.8-15.4-4.1c0-2.2,6.9-4.1,15.4-4.1
				C25.3,48.1,32.2,50,32.2,52.2z"/>
			<path class="st2" d="M29.4,51.7c0,1.5-5.7,2.8-12.6,2.8c-7,0-12.6-1.3-12.6-2.8c0-1.5,5.7-2.8,12.6-2.8
				C23.8,48.9,29.4,50.1,29.4,51.7z"/>
			<path class="st3" d="M4.6,52.3c1.4-1.2,6.3-2.1,12.2-2.1s10.9,0.9,12.2,2.1c0.3-0.2,0.4-0.4,0.4-0.7c0-1.5-5.7-2.8-12.6-2.8
				c-7,0-12.6,1.3-12.6,2.8C4.2,51.9,4.3,52.1,4.6,52.3z"/>
			<g>
				<path class="st3" d="M2.3,54.5v4.3c-0.2-0.1-0.3-0.3-0.5-0.5v-3.8H2.3z"/>
				<path class="st3" d="M3.7,55.7v3.9c-0.2-0.1-0.3-0.2-0.5-0.2v-3.7H3.7z"/>
				<path class="st3" d="M5.4,56.5v3.8c-0.2,0-0.3-0.1-0.4-0.2v-3.7H5.4z"/>
				<path class="st3" d="M7.2,57v3.8c-0.2,0-0.3-0.1-0.4-0.1V57H7.2z"/>
				<path class="st3" d="M8.9,57.5v3.7c-0.2,0-0.3-0.1-0.4-0.1v-3.6H8.9z"/>
				<path class="st3" d="M10.8,57.8v3.6c-0.2,0-0.3,0-0.4-0.1v-3.6H10.8z"/>
				<path class="st3" d="M12.5,57.8v3.8c-0.2,0-0.3,0-0.5,0v-3.8H12.5z"/>
				<path class="st3" d="M14.9,57.8v4c-0.2,0-0.3,0-0.4,0v-3.9H14.9z"/>
				<path class="st3" d="M17.6,57.5v4.3c-0.1,0-0.3,0-0.4,0v-4.3H17.6z"/>
				<path class="st3" d="M20.1,57v4.7c-0.1,0-0.3,0-0.4,0V57H20.1z"/>
				<path class="st3" d="M22.1,57v4.5c-0.1,0-0.3,0-0.4,0V57H22.1z"/>
				<path class="st3" d="M24.7,56.5v4.7c-0.1,0-0.3,0.1-0.4,0.1v-4.8H24.7z"/>
				<path class="st3" d="M27.6,56v4.5c-0.1,0-0.3,0.1-0.4,0.1V56H27.6z"/>
				<path class="st3" d="M29.9,54.8v4.9c-0.1,0.1-0.3,0.1-0.4,0.2v-5.1H29.9z"/>
				<path class="st3" d="M31.5,54v4.7c-0.1,0.1-0.3,0.2-0.4,0.4v-5H31.5z"/>
			</g>
			<path class="st4" d="M31.5,56.4c-0.1,0.1-0.3,0.2-0.4,0.4c-0.3,0.2-0.7,0.5-1.2,0.7c-0.1,0.1-0.3,0.1-0.4,0.2
				c-0.5,0.2-1.2,0.4-1.8,0.6c-0.1,0-0.3,0.1-0.4,0.1c-0.7,0.2-1.5,0.4-2.4,0.5c-0.1,0-0.3,0.1-0.4,0.1c-0.7,0.1-1.4,0.2-2.2,0.3
				c-0.1,0-0.3,0-0.4,0c-0.5,0.1-1,0.1-1.6,0.1c-0.1,0-0.3,0-0.4,0c-0.7,0-1.4,0.1-2.1,0.1c-0.1,0-0.3,0-0.4,0h-0.3
				c-0.7,0-1.3,0-1.9,0c-0.2,0-0.3,0-0.4,0c-0.6,0-1.3-0.1-1.9-0.1c-0.2,0-0.3,0-0.5,0c-0.4,0-0.8-0.1-1.2-0.1c-0.2,0-0.3,0-0.4-0.1
				c-0.5-0.1-1-0.1-1.5-0.2c-0.2,0-0.3-0.1-0.4-0.1c-0.4-0.1-0.8-0.2-1.2-0.3c-0.2,0-0.3-0.1-0.4-0.1c-0.5-0.1-0.9-0.3-1.4-0.4
				c-0.2,0-0.3-0.1-0.4-0.2c-0.5-0.2-0.9-0.3-1.2-0.5c-0.2-0.1-0.3-0.2-0.5-0.2c-0.4-0.2-0.7-0.4-1-0.6c-0.2-0.1-0.3-0.3-0.5-0.5
				c-0.3-0.3-0.4-0.7-0.4-1.1c0,0.8,0,1.7,0,2.2c0,0.4,0.1,0.7,0.4,1.1c0.1,0.2,0.3,0.3,0.5,0.5c0.3,0.2,0.6,0.4,1,0.6
				c0.1,0.1,0.3,0.2,0.5,0.2c0.4,0.2,0.8,0.4,1.2,0.5c0.1,0.1,0.3,0.1,0.4,0.2c0.4,0.1,0.9,0.3,1.4,0.4c0.1,0,0.3,0.1,0.4,0.1
				C7.6,60.9,8,61,8.4,61.1c0.1,0,0.3,0.1,0.4,0.1c0.5,0.1,1,0.2,1.5,0.2c0.1,0,0.3,0,0.4,0.1c0.4,0,0.8,0.1,1.2,0.1
				c0.1,0,0.3,0,0.5,0c0.6,0.1,1.2,0.1,1.9,0.1c0.1,0,0.3,0,0.4,0c0.6,0,1.3,0,1.9,0h0.3c0.2,0,0.3,0,0.4,0c0.7,0,1.4,0,2.1-0.1
				c0.2,0,0.3,0,0.4,0c0.5,0,1.1-0.1,1.6-0.1c0.1,0,0.3,0,0.4,0c0.8-0.1,1.5-0.2,2.2-0.3c0.2,0,0.3-0.1,0.4-0.1
				c0.9-0.2,1.7-0.3,2.4-0.5c0.2,0,0.3-0.1,0.4-0.1c0.7-0.2,1.3-0.4,1.8-0.6c0.2-0.1,0.3-0.1,0.4-0.2c0.4-0.2,0.8-0.4,1.2-0.7
				c0.2-0.1,0.3-0.2,0.4-0.4c0.5-0.4,0.7-0.9,0.7-1.4V55C32.2,55.5,31.9,56,31.5,56.4z"/>
		</g>
		<g>
			<path class="st0" d="M33.5,45.8v5c0,0.5-0.2,0.9-0.7,1.4c-0.1,0.1-0.3,0.2-0.4,0.4c-0.3,0.2-0.7,0.5-1.2,0.7
				c-0.1,0.1-0.3,0.1-0.4,0.2c-0.5,0.2-1.2,0.4-1.8,0.6c-0.1,0-0.3,0.1-0.4,0.1c-0.7,0.2-1.5,0.4-2.4,0.5c-0.1,0-0.3,0.1-0.4,0.1
				c-0.7,0.1-1.4,0.2-2.2,0.3c-0.1,0-0.3,0-0.4,0c-0.5,0.1-1,0.1-1.6,0.1c-0.1,0-0.3,0-0.4,0c-0.7,0-1.4,0.1-2.1,0.1
				c-0.1,0-0.3,0-0.4,0h-0.3c-0.7,0-1.3,0-1.9,0c-0.2,0-0.3,0-0.4,0c-0.6,0-1.3-0.1-1.9-0.1c-0.2,0-0.3,0-0.5,0
				c-0.4,0-0.8-0.1-1.2-0.1c-0.2,0-0.3,0-0.4-0.1c-0.5-0.1-1-0.1-1.5-0.2c-0.2,0-0.3-0.1-0.4-0.1c-0.4-0.1-0.8-0.2-1.2-0.3
				c-0.2,0-0.3-0.1-0.4-0.1c-0.5-0.1-0.9-0.3-1.4-0.4c-0.2,0-0.3-0.1-0.4-0.2c-0.5-0.2-0.9-0.3-1.2-0.5c-0.2-0.1-0.3-0.2-0.5-0.2
				c-0.4-0.2-0.7-0.4-1-0.6c-0.2-0.1-0.3-0.3-0.5-0.5c-0.3-0.3-0.4-0.7-0.4-1.1c0-1.5,0-5,0-5H33.5z"/>
			<path class="st1" d="M33.5,45.8c0,2.2-6.9,4.1-15.4,4.1c-8.5,0-15.4-1.8-15.4-4.1c0-2.2,6.9-4.1,15.4-4.1
				C26.6,41.7,33.5,43.5,33.5,45.8z"/>
			<path class="st2" d="M30.7,45.2c0,1.5-5.7,2.8-12.6,2.8S5.5,46.8,5.5,45.2c0-1.5,5.6-2.8,12.6-2.8S30.7,43.7,30.7,45.2z"/>
			<path class="st3" d="M5.9,45.9c1.4-1.2,6.3-2.1,12.2-2.1c5.9,0,10.9,0.9,12.2,2.1c0.3-0.2,0.4-0.5,0.4-0.7
				c0-1.5-5.7-2.8-12.6-2.8S5.5,43.7,5.5,45.2C5.5,45.5,5.6,45.7,5.9,45.9z"/>
			<g>
				<path class="st3" d="M3.6,48v4.3c-0.2-0.1-0.3-0.3-0.5-0.5V48H3.6z"/>
				<path class="st3" d="M5,49.3v3.9c-0.2-0.1-0.3-0.2-0.5-0.2v-3.7H5z"/>
				<path class="st3" d="M6.7,50.1v3.8c-0.2,0-0.3-0.1-0.4-0.2v-3.7H6.7z"/>
				<path class="st3" d="M8.5,50.6v3.8c-0.2,0-0.3-0.1-0.4-0.1v-3.7H8.5z"/>
				<path class="st3" d="M10.2,51.1v3.7c-0.2,0-0.3-0.1-0.4-0.1v-3.6H10.2z"/>
				<path class="st3" d="M12.2,51.4V55c-0.2,0-0.3,0-0.4-0.1v-3.6H12.2z"/>
				<path class="st3" d="M13.9,51.4v3.8c-0.2,0-0.3,0-0.5,0v-3.8H13.9z"/>
				<path class="st3" d="M16.2,51.4v4c-0.2,0-0.3,0-0.4,0v-3.9H16.2z"/>
				<path class="st3" d="M18.9,51.1v4.3c-0.1,0-0.3,0-0.4,0v-4.3H18.9z"/>
				<path class="st3" d="M21.4,50.6v4.7c-0.1,0-0.3,0-0.4,0v-4.7H21.4z"/>
				<path class="st3" d="M23.4,50.6v4.5c-0.1,0-0.3,0-0.4,0v-4.6H23.4z"/>
				<path class="st3" d="M26.1,50.1v4.7c-0.1,0-0.3,0.1-0.4,0.1v-4.8H26.1z"/>
				<path class="st3" d="M28.9,49.6v4.5c-0.1,0-0.3,0.1-0.4,0.1v-4.6H28.9z"/>
				<path class="st3" d="M31.2,48.4v4.9c-0.1,0.1-0.3,0.1-0.4,0.2v-5.1H31.2z"/>
				<path class="st3" d="M32.8,47.5v4.7c-0.1,0.1-0.3,0.2-0.4,0.4v-5H32.8z"/>
			</g>
			<path class="st4" d="M32.8,50c-0.1,0.1-0.3,0.2-0.4,0.4c-0.3,0.2-0.7,0.5-1.2,0.7c-0.1,0.1-0.3,0.1-0.4,0.2
				c-0.5,0.2-1.2,0.4-1.8,0.6c-0.1,0-0.3,0.1-0.4,0.1c-0.7,0.2-1.5,0.4-2.4,0.5c-0.1,0-0.3,0.1-0.4,0.1c-0.7,0.1-1.4,0.2-2.2,0.3
				c-0.1,0-0.3,0-0.4,0c-0.5,0.1-1,0.1-1.6,0.1c-0.1,0-0.3,0-0.4,0c-0.7,0-1.4,0.1-2.1,0.1c-0.1,0-0.3,0-0.4,0h-0.3
				c-0.7,0-1.3,0-1.9,0c-0.2,0-0.3,0-0.4,0c-0.6,0-1.3-0.1-1.9-0.1c-0.2,0-0.3,0-0.5,0c-0.4,0-0.8-0.1-1.2-0.1c-0.2,0-0.3,0-0.4-0.1
				c-0.5-0.1-1-0.1-1.5-0.2c-0.2,0-0.3-0.1-0.4-0.1c-0.4-0.1-0.8-0.2-1.2-0.3c-0.2,0-0.3-0.1-0.4-0.1c-0.5-0.1-0.9-0.3-1.4-0.4
				c-0.2,0-0.3-0.1-0.4-0.2C5.8,51.3,5.4,51.2,5,51c-0.2-0.1-0.3-0.2-0.5-0.2c-0.4-0.2-0.7-0.4-1-0.6c-0.2-0.1-0.3-0.3-0.5-0.5
				c-0.3-0.3-0.4-0.7-0.4-1.1c0,0.8,0,1.7,0,2.2c0,0.4,0.1,0.7,0.4,1.1c0.1,0.2,0.3,0.3,0.5,0.5c0.3,0.2,0.6,0.4,1,0.6
				c0.1,0.1,0.3,0.2,0.5,0.2c0.4,0.2,0.8,0.4,1.2,0.5c0.1,0.1,0.3,0.1,0.4,0.2c0.4,0.1,0.9,0.3,1.4,0.4c0.1,0,0.3,0.1,0.4,0.1
				c0.4,0.1,0.8,0.2,1.2,0.3c0.1,0,0.3,0.1,0.4,0.1c0.5,0.1,1,0.2,1.5,0.2c0.1,0,0.3,0,0.4,0.1c0.4,0,0.8,0.1,1.2,0.1
				c0.1,0,0.3,0,0.5,0c0.6,0.1,1.2,0.1,1.9,0.1c0.1,0,0.3,0,0.4,0c0.6,0,1.3,0,1.9,0h0.3c0.2,0,0.3,0,0.4,0c0.7,0,1.4,0,2.1-0.1
				c0.2,0,0.3,0,0.4,0c0.5,0,1.1-0.1,1.6-0.1c0.1,0,0.3,0,0.4,0c0.8-0.1,1.5-0.2,2.2-0.3c0.2,0,0.3-0.1,0.4-0.1
				c0.9-0.2,1.7-0.3,2.4-0.5c0.2,0,0.3-0.1,0.4-0.1c0.7-0.2,1.3-0.4,1.8-0.6c0.2-0.1,0.3-0.1,0.4-0.2c0.4-0.2,0.8-0.4,1.2-0.7
				c0.2-0.1,0.3-0.2,0.4-0.4c0.5-0.4,0.7-0.9,0.7-1.4v-2.2C33.5,49.1,33.2,49.5,32.8,50z"/>
		</g>
		<g>
			<path class="st0" d="M35.2,39.7v5c0,0.5-0.2,0.9-0.7,1.4c-0.1,0.1-0.3,0.2-0.4,0.4c-0.3,0.2-0.7,0.5-1.2,0.7
				c-0.1,0.1-0.3,0.1-0.4,0.2c-0.5,0.2-1.2,0.4-1.8,0.6c-0.1,0-0.3,0.1-0.4,0.1c-0.7,0.2-1.5,0.4-2.4,0.5c-0.1,0-0.3,0.1-0.4,0.1
				c-0.7,0.1-1.4,0.2-2.2,0.3c-0.1,0-0.3,0-0.4,0c-0.5,0.1-1,0.1-1.6,0.1c-0.1,0-0.3,0-0.4,0c-0.7,0-1.4,0.1-2.1,0.1
				c-0.1,0-0.3,0-0.4,0h-0.3c-0.7,0-1.3,0-1.9,0c-0.2,0-0.3,0-0.4,0c-0.6,0-1.3-0.1-1.9-0.1c-0.2,0-0.3,0-0.5,0
				c-0.4,0-0.8-0.1-1.2-0.1c-0.2,0-0.3,0-0.4-0.1c-0.5-0.1-1-0.1-1.5-0.2c-0.2,0-0.3-0.1-0.4-0.1c-0.4-0.1-0.8-0.2-1.2-0.3
				c-0.2,0-0.3-0.1-0.4-0.1c-0.5-0.1-0.9-0.3-1.4-0.4c-0.2,0-0.3-0.1-0.4-0.2c-0.5-0.2-0.9-0.3-1.2-0.5c-0.2-0.1-0.3-0.2-0.5-0.2
				c-0.4-0.2-0.7-0.4-1-0.6c-0.2-0.1-0.3-0.3-0.5-0.5c-0.3-0.3-0.4-0.7-0.4-1.1c0-1.5,0-5,0-5H35.2z"/>
			<path class="st1" d="M35.2,39.7c0,2.2-6.9,4.1-15.4,4.1c-8.5,0-15.4-1.8-15.4-4.1c0-2.2,6.9-4.1,15.4-4.1
				C28.3,35.6,35.2,37.4,35.2,39.7z"/>
			<path class="st2" d="M32.4,39.1c0,1.5-5.6,2.8-12.6,2.8S7.2,40.7,7.2,39.1c0-1.5,5.6-2.8,12.6-2.8S32.4,37.6,32.4,39.1z"/>
			<path class="st3" d="M7.5,39.8c1.4-1.2,6.3-2.1,12.2-2.1c5.9,0,10.9,0.9,12.2,2.1c0.3-0.2,0.4-0.4,0.4-0.7
				c0-1.5-5.6-2.8-12.6-2.8S7.2,37.6,7.2,39.1C7.2,39.4,7.3,39.6,7.5,39.8z"/>
			<g>
				<path class="st3" d="M5.3,41.9v4.3c-0.2-0.1-0.3-0.3-0.5-0.5v-3.8H5.3z"/>
				<path class="st3" d="M6.7,43.2v3.9c-0.2-0.1-0.3-0.2-0.5-0.2v-3.7H6.7z"/>
				<path class="st3" d="M8.4,44v3.8c-0.2,0-0.3-0.1-0.4-0.2V44H8.4z"/>
				<path class="st3" d="M10.2,44.5v3.8c-0.2,0-0.3-0.1-0.4-0.1v-3.7H10.2z"/>
				<path class="st3" d="M11.9,45v3.7c-0.2,0-0.3-0.1-0.4-0.1V45H11.9z"/>
				<path class="st3" d="M13.8,45.3v3.6c-0.2,0-0.3,0-0.4-0.1v-3.6H13.8z"/>
				<path class="st3" d="M15.5,45.3v3.8c-0.2,0-0.3,0-0.5,0v-3.8H15.5z"/>
				<path class="st3" d="M17.9,45.3v4c-0.2,0-0.3,0-0.4,0v-3.9H17.9z"/>
				<path class="st3" d="M20.5,45v4.3c-0.1,0-0.3,0-0.4,0V45H20.5z"/>
				<path class="st3" d="M23,44.5v4.7c-0.1,0-0.3,0-0.4,0v-4.7H23z"/>
				<path class="st3" d="M25.1,44.5V49c-0.1,0-0.3,0-0.4,0v-4.6H25.1z"/>
				<path class="st3" d="M27.7,44v4.7c-0.1,0-0.3,0.1-0.4,0.1V44H27.7z"/>
				<path class="st3" d="M30.6,43.5V48c-0.1,0-0.3,0.1-0.4,0.1v-4.6H30.6z"/>
				<path class="st3" d="M32.8,42.2v4.9c-0.1,0.1-0.3,0.1-0.4,0.2v-5.1H32.8z"/>
				<path class="st3" d="M34.4,41.4v4.7c-0.1,0.1-0.3,0.2-0.4,0.4v-5H34.4z"/>
			</g>
			<path class="st4" d="M34.4,43.9c-0.1,0.1-0.3,0.2-0.4,0.4c-0.3,0.2-0.7,0.5-1.2,0.7c-0.1,0.1-0.3,0.1-0.4,0.2
				c-0.5,0.2-1.2,0.4-1.8,0.6c-0.1,0-0.3,0.1-0.4,0.1c-0.7,0.2-1.5,0.4-2.4,0.5c-0.1,0-0.3,0.1-0.4,0.1c-0.7,0.1-1.4,0.2-2.2,0.3
				c-0.1,0-0.3,0-0.4,0c-0.5,0.1-1,0.1-1.6,0.1c-0.1,0-0.3,0-0.4,0c-0.7,0-1.4,0.1-2.1,0.1c-0.1,0-0.3,0-0.4,0h-0.3
				c-0.7,0-1.3,0-1.9,0c-0.2,0-0.3,0-0.4,0c-0.6,0-1.3-0.1-1.9-0.1c-0.2,0-0.3,0-0.5,0c-0.4,0-0.8-0.1-1.2-0.1c-0.2,0-0.3,0-0.4-0.1
				c-0.5-0.1-1-0.1-1.5-0.2c-0.2,0-0.3-0.1-0.4-0.1c-0.4-0.1-0.8-0.2-1.2-0.3C10,46,9.9,46,9.8,45.9c-0.5-0.1-0.9-0.3-1.4-0.4
				c-0.2,0-0.3-0.1-0.4-0.2c-0.5-0.2-0.9-0.3-1.2-0.5c-0.2-0.1-0.3-0.2-0.5-0.2c-0.4-0.2-0.7-0.4-1-0.6c-0.2-0.1-0.3-0.3-0.5-0.5
				c-0.3-0.3-0.4-0.7-0.4-1.1c0,0.8,0,1.7,0,2.2c0,0.4,0.1,0.7,0.4,1.1c0.1,0.2,0.3,0.3,0.5,0.5c0.3,0.2,0.6,0.4,1,0.6
				c0.1,0.1,0.3,0.2,0.5,0.2c0.4,0.2,0.8,0.4,1.2,0.5c0.1,0.1,0.3,0.1,0.4,0.2c0.4,0.1,0.9,0.3,1.4,0.4c0.1,0,0.3,0.1,0.4,0.1
				c0.4,0.1,0.8,0.2,1.2,0.3c0.1,0,0.3,0.1,0.4,0.1c0.5,0.1,1,0.2,1.5,0.2c0.1,0,0.3,0,0.4,0.1c0.4,0,0.8,0.1,1.2,0.1
				c0.1,0,0.3,0,0.5,0c0.6,0.1,1.2,0.1,1.9,0.1c0.1,0,0.3,0,0.4,0c0.6,0,1.3,0,1.9,0h0.3c0.2,0,0.3,0,0.4,0c0.7,0,1.4,0,2.1-0.1
				c0.2,0,0.3,0,0.4,0c0.5,0,1.1-0.1,1.6-0.1c0.1,0,0.3,0,0.4,0c0.8-0.1,1.5-0.2,2.2-0.3c0.2,0,0.3-0.1,0.4-0.1
				c0.9-0.2,1.7-0.3,2.4-0.5c0.2,0,0.3-0.1,0.4-0.1c0.7-0.2,1.3-0.4,1.8-0.6c0.2-0.1,0.3-0.1,0.4-0.2c0.4-0.2,0.8-0.4,1.2-0.7
				c0.2-0.1,0.3-0.2,0.4-0.4c0.5-0.4,0.7-0.9,0.7-1.4v-2.2C35.2,43,34.9,43.4,34.4,43.9z"/>
		</g>
	</g>
</g>
<g>
	<g>
		<g>
			<path class="st0" d="M34.5,32.4v5c0,0.5-0.2,0.9-0.7,1.4c-0.1,0.1-0.3,0.2-0.4,0.4c-0.3,0.2-0.7,0.5-1.2,0.7
				C32,39.9,31.9,40,31.7,40c-0.5,0.2-1.2,0.4-1.8,0.6c-0.1,0-0.3,0.1-0.4,0.1c-0.7,0.2-1.5,0.4-2.4,0.5c-0.1,0-0.3,0.1-0.4,0.1
				c-0.7,0.1-1.4,0.2-2.2,0.3c-0.1,0-0.3,0-0.4,0c-0.5,0.1-1,0.1-1.6,0.1c-0.1,0-0.3,0-0.4,0c-0.7,0-1.4,0.1-2.1,0.1
				c-0.1,0-0.3,0-0.4,0h-0.3c-0.7,0-1.3,0-1.9,0c-0.2,0-0.3,0-0.4,0c-0.6,0-1.3-0.1-1.9-0.1c-0.2,0-0.3,0-0.5,0
				c-0.4,0-0.8-0.1-1.2-0.1c-0.2,0-0.3,0-0.4-0.1c-0.5-0.1-1-0.1-1.5-0.2c-0.2,0-0.3-0.1-0.4-0.1c-0.4-0.1-0.8-0.2-1.2-0.3
				c-0.2,0-0.3-0.1-0.4-0.1c-0.5-0.1-0.9-0.3-1.4-0.4c-0.2,0-0.3-0.1-0.4-0.2C6.8,40.2,6.4,40,6,39.8c-0.2-0.1-0.3-0.2-0.5-0.2
				c-0.4-0.2-0.7-0.4-1-0.6c-0.2-0.1-0.3-0.3-0.5-0.5c-0.3-0.3-0.4-0.7-0.4-1.1c0-1.5,0-5,0-5H34.5z"/>
			<path class="st1" d="M34.5,32.4c0,2.2-6.9,4.1-15.4,4.1S3.7,34.6,3.7,32.4c0-2.2,6.9-4.1,15.4-4.1S34.5,30.1,34.5,32.4z"/>
			<path class="st2" d="M31.7,31.8c0,1.5-5.7,2.8-12.6,2.8c-7,0-12.6-1.3-12.6-2.8c0-1.5,5.7-2.8,12.6-2.8
				C26.1,29,31.7,30.3,31.7,31.8z"/>
			<path class="st3" d="M6.9,32.5c1.4-1.2,6.3-2.1,12.2-2.1c5.9,0,10.9,0.9,12.2,2.1c0.3-0.2,0.4-0.5,0.4-0.7
				c0-1.5-5.7-2.8-12.6-2.8c-7,0-12.6,1.3-12.6,2.8C6.5,32.1,6.6,32.3,6.9,32.5z"/>
			<g>
				<path class="st3" d="M4.6,34.6v4.3c-0.2-0.1-0.3-0.3-0.5-0.5v-3.8H4.6z"/>
				<path class="st3" d="M6,35.9v3.9c-0.2-0.1-0.3-0.2-0.5-0.2v-3.7H6z"/>
				<path class="st3" d="M7.7,36.7v3.8c-0.2,0-0.3-0.1-0.4-0.2v-3.7H7.7z"/>
				<path class="st3" d="M9.5,37.2V41c-0.2,0-0.3-0.1-0.4-0.1v-3.7H9.5z"/>
				<path class="st3" d="M11.2,37.7v3.7c-0.2,0-0.3-0.1-0.4-0.1v-3.6H11.2z"/>
				<path class="st3" d="M13.1,38v3.6c-0.2,0-0.3,0-0.4-0.1V38H13.1z"/>
				<path class="st3" d="M14.8,38v3.8c-0.2,0-0.3,0-0.5,0V38H14.8z"/>
				<path class="st3" d="M17.2,38v4c-0.2,0-0.3,0-0.4,0V38H17.2z"/>
				<path class="st3" d="M19.9,37.7V42c-0.1,0-0.3,0-0.4,0v-4.3H19.9z"/>
				<path class="st3" d="M22.4,37.2v4.7c-0.1,0-0.3,0-0.4,0v-4.7H22.4z"/>
				<path class="st3" d="M24.4,37.2v4.5c-0.1,0-0.3,0-0.4,0v-4.6H24.4z"/>
				<path class="st3" d="M27,36.7v4.7c-0.1,0-0.3,0.1-0.4,0.1v-4.8H27z"/>
				<path class="st3" d="M29.9,36.2v4.5c-0.1,0-0.3,0.1-0.4,0.1v-4.6H29.9z"/>
				<path class="st3" d="M32.2,35v4.9C32,39.9,31.9,40,31.7,40V35H32.2z"/>
				<path class="st3" d="M33.8,34.1v4.7c-0.1,0.1-0.3,0.2-0.4,0.4v-5H33.8z"/>
			</g>
			<path class="st4" d="M33.8,36.6c-0.1,0.1-0.3,0.2-0.4,0.4c-0.3,0.2-0.7,0.5-1.2,0.7c-0.1,0.1-0.3,0.1-0.4,0.2
				c-0.5,0.2-1.2,0.4-1.8,0.6c-0.1,0-0.3,0.1-0.4,0.1c-0.7,0.2-1.5,0.4-2.4,0.5c-0.1,0-0.3,0.1-0.4,0.1c-0.7,0.1-1.4,0.2-2.2,0.3
				c-0.1,0-0.3,0-0.4,0c-0.5,0.1-1,0.1-1.6,0.1c-0.1,0-0.3,0-0.4,0c-0.7,0-1.4,0.1-2.1,0.1c-0.1,0-0.3,0-0.4,0h-0.3
				c-0.7,0-1.3,0-1.9,0c-0.2,0-0.3,0-0.4,0c-0.6,0-1.3-0.1-1.9-0.1c-0.2,0-0.3,0-0.5,0c-0.4,0-0.8-0.1-1.2-0.1c-0.2,0-0.3,0-0.4-0.1
				c-0.5-0.1-1-0.1-1.5-0.2c-0.2,0-0.3-0.1-0.4-0.1c-0.4-0.1-0.8-0.2-1.2-0.3c-0.2,0-0.3-0.1-0.4-0.1c-0.5-0.1-0.9-0.3-1.4-0.4
				c-0.2,0-0.3-0.1-0.4-0.2C6.8,38,6.4,37.8,6,37.6c-0.2-0.1-0.3-0.2-0.5-0.2c-0.4-0.2-0.7-0.4-1-0.6c-0.2-0.1-0.3-0.3-0.5-0.5
				c-0.3-0.3-0.4-0.7-0.4-1.1c0,0.8,0,1.7,0,2.2c0,0.4,0.1,0.7,0.4,1.1c0.1,0.2,0.3,0.3,0.5,0.5c0.3,0.2,0.6,0.4,1,0.6
				c0.1,0.1,0.3,0.2,0.5,0.2c0.4,0.2,0.8,0.4,1.2,0.5c0.1,0.1,0.3,0.1,0.4,0.2c0.4,0.1,0.9,0.3,1.4,0.4c0.1,0,0.3,0.1,0.4,0.1
				c0.4,0.1,0.8,0.2,1.2,0.3c0.1,0,0.3,0.1,0.4,0.1c0.5,0.1,1,0.2,1.5,0.2c0.1,0,0.3,0,0.4,0.1c0.4,0,0.8,0.1,1.2,0.1
				c0.1,0,0.3,0,0.5,0c0.6,0.1,1.2,0.1,1.9,0.1c0.1,0,0.3,0,0.4,0c0.6,0,1.3,0,1.9,0h0.3c0.2,0,0.3,0,0.4,0c0.7,0,1.4,0,2.1-0.1
				c0.2,0,0.3,0,0.4,0c0.5,0,1.1-0.1,1.6-0.1c0.1,0,0.3,0,0.4,0c0.8-0.1,1.5-0.2,2.2-0.3c0.2,0,0.3-0.1,0.4-0.1
				c0.9-0.2,1.7-0.3,2.4-0.5c0.2,0,0.3-0.1,0.4-0.1c0.7-0.2,1.3-0.4,1.8-0.6c0.2-0.1,0.3-0.1,0.4-0.2c0.4-0.2,0.8-0.4,1.2-0.7
				c0.2-0.1,0.3-0.2,0.4-0.4c0.5-0.4,0.7-0.9,0.7-1.4v-2.2C34.5,35.7,34.2,36.1,33.8,36.6z"/>
		</g>
		<g>
			<path class="st0" d="M33.2,26.3v5c0,0.5-0.2,0.9-0.7,1.4c-0.1,0.1-0.3,0.2-0.4,0.4c-0.3,0.2-0.7,0.5-1.2,0.7
				c-0.1,0.1-0.3,0.1-0.4,0.2c-0.5,0.2-1.2,0.4-1.8,0.6c-0.1,0-0.3,0.1-0.4,0.1c-0.7,0.2-1.5,0.4-2.4,0.5c-0.1,0-0.3,0.1-0.4,0.1
				c-0.7,0.1-1.4,0.2-2.2,0.3c-0.1,0-0.3,0-0.4,0c-0.5,0.1-1,0.1-1.6,0.1c-0.1,0-0.3,0-0.4,0c-0.7,0-1.4,0.1-2.1,0.1
				c-0.1,0-0.3,0-0.4,0h-0.3c-0.7,0-1.3,0-1.9,0c-0.2,0-0.3,0-0.4,0c-0.6,0-1.3-0.1-1.9-0.1c-0.2,0-0.3,0-0.5,0
				c-0.4,0-0.8-0.1-1.2-0.1c-0.2,0-0.3,0-0.4-0.1c-0.5-0.1-1-0.1-1.5-0.2c-0.2,0-0.3-0.1-0.4-0.1C9,35.1,8.6,35,8.2,34.9
				c-0.2,0-0.3-0.1-0.4-0.1c-0.5-0.1-0.9-0.3-1.4-0.4c-0.2,0-0.3-0.1-0.4-0.2c-0.5-0.2-0.9-0.3-1.2-0.5c-0.2-0.1-0.3-0.2-0.5-0.2
				c-0.4-0.2-0.7-0.4-1-0.6c-0.2-0.1-0.3-0.3-0.5-0.5c-0.3-0.3-0.4-0.7-0.4-1.1c0-1.5,0-5,0-5H33.2z"/>
			<path class="st1" d="M33.2,26.3c0,2.2-6.9,4.1-15.4,4.1c-8.5,0-15.4-1.8-15.4-4.1c0-2.2,6.9-4.1,15.4-4.1
				C26.3,22.2,33.2,24,33.2,26.3z"/>
			<path class="st2" d="M30.4,25.7c0,1.5-5.7,2.8-12.6,2.8c-7,0-12.6-1.3-12.6-2.8c0-1.5,5.7-2.8,12.6-2.8
				C24.7,22.9,30.4,24.2,30.4,25.7z"/>
			<path class="st3" d="M5.5,26.4c1.4-1.2,6.3-2.1,12.2-2.1c5.9,0,10.9,0.9,12.2,2.1c0.3-0.2,0.4-0.5,0.4-0.7
				c0-1.5-5.7-2.8-12.6-2.8c-7,0-12.6,1.3-12.6,2.8C5.2,26,5.3,26.2,5.5,26.4z"/>
			<g>
				<path class="st3" d="M3.3,28.5v4.3c-0.2-0.1-0.3-0.3-0.5-0.5v-3.8H3.3z"/>
				<path class="st3" d="M4.7,29.8v3.9c-0.2-0.1-0.3-0.2-0.5-0.2v-3.7H4.7z"/>
				<path class="st3" d="M6.4,30.6v3.8c-0.2,0-0.3-0.1-0.4-0.2v-3.7H6.4z"/>
				<path class="st3" d="M8.2,31.1v3.8c-0.2,0-0.3-0.1-0.4-0.1v-3.7H8.2z"/>
				<path class="st3" d="M9.9,31.6v3.7c-0.2,0-0.3-0.1-0.4-0.1v-3.6H9.9z"/>
				<path class="st3" d="M11.8,31.9v3.6c-0.2,0-0.3,0-0.4-0.1v-3.6H11.8z"/>
				<path class="st3" d="M13.5,31.9v3.8c-0.2,0-0.3,0-0.5,0v-3.8H13.5z"/>
				<path class="st3" d="M15.9,31.9v4c-0.2,0-0.3,0-0.4,0v-3.9H15.9z"/>
				<path class="st3" d="M18.5,31.6v4.3c-0.1,0-0.3,0-0.4,0v-4.3H18.5z"/>
				<path class="st3" d="M21,31.1v4.7c-0.1,0-0.3,0-0.4,0v-4.7H21z"/>
				<path class="st3" d="M23.1,31.1v4.5c-0.1,0-0.3,0-0.4,0v-4.6H23.1z"/>
				<path class="st3" d="M25.7,30.6v4.7c-0.1,0-0.3,0.1-0.4,0.1v-4.8H25.7z"/>
				<path class="st3" d="M28.6,30.1v4.5c-0.1,0-0.3,0.1-0.4,0.1v-4.6H28.6z"/>
				<path class="st3" d="M30.8,28.9v4.9c-0.1,0.1-0.3,0.1-0.4,0.2v-5.1H30.8z"/>
				<path class="st3" d="M32.4,28v4.7c-0.1,0.1-0.3,0.2-0.4,0.4v-5H32.4z"/>
			</g>
			<path class="st4" d="M32.4,30.5c-0.1,0.1-0.3,0.2-0.4,0.4c-0.3,0.2-0.7,0.5-1.2,0.7c-0.1,0.1-0.3,0.1-0.4,0.2
				c-0.5,0.2-1.2,0.4-1.8,0.6c-0.1,0-0.3,0.1-0.4,0.1c-0.7,0.2-1.5,0.4-2.4,0.5c-0.1,0-0.3,0.1-0.4,0.1c-0.7,0.1-1.4,0.2-2.2,0.3
				c-0.1,0-0.3,0-0.4,0c-0.5,0.1-1,0.1-1.6,0.1c-0.1,0-0.3,0-0.4,0c-0.7,0-1.4,0.1-2.1,0.1c-0.1,0-0.3,0-0.4,0h-0.3
				c-0.7,0-1.3,0-1.9,0c-0.2,0-0.3,0-0.4,0c-0.6,0-1.3-0.1-1.9-0.1c-0.2,0-0.3,0-0.5,0c-0.4,0-0.8-0.1-1.2-0.1c-0.2,0-0.3,0-0.4-0.1
				c-0.5-0.1-1-0.1-1.5-0.2c-0.2,0-0.3-0.1-0.4-0.1c-0.4-0.1-0.8-0.2-1.2-0.3c-0.2,0-0.3-0.1-0.4-0.1c-0.5-0.1-0.9-0.3-1.4-0.4
				c-0.2,0-0.3-0.1-0.4-0.2c-0.5-0.2-0.9-0.3-1.2-0.5c-0.2-0.1-0.3-0.2-0.5-0.2c-0.4-0.2-0.7-0.4-1-0.6c-0.2-0.1-0.3-0.3-0.5-0.5
				c-0.3-0.3-0.4-0.7-0.4-1.1c0,0.8,0,1.7,0,2.2c0,0.4,0.1,0.7,0.4,1.1c0.1,0.2,0.3,0.3,0.5,0.5c0.3,0.2,0.6,0.4,1,0.6
				c0.1,0.1,0.3,0.2,0.5,0.2c0.4,0.2,0.8,0.4,1.2,0.5c0.1,0.1,0.3,0.1,0.4,0.2c0.4,0.1,0.9,0.3,1.4,0.4c0.1,0,0.3,0.1,0.4,0.1
				C8.6,35,9,35.1,9.4,35.2c0.1,0,0.3,0.1,0.4,0.1c0.5,0.1,1,0.2,1.5,0.2c0.1,0,0.3,0,0.4,0.1c0.4,0,0.8,0.1,1.2,0.1
				c0.1,0,0.3,0,0.5,0c0.6,0.1,1.2,0.1,1.9,0.1c0.1,0,0.3,0,0.4,0c0.6,0,1.3,0,1.9,0h0.3c0.2,0,0.3,0,0.4,0c0.7,0,1.4,0,2.1-0.1
				c0.2,0,0.3,0,0.4,0c0.5,0,1.1-0.1,1.6-0.1c0.1,0,0.3,0,0.4,0c0.8-0.1,1.5-0.2,2.2-0.3c0.2,0,0.3-0.1,0.4-0.1
				c0.9-0.2,1.7-0.3,2.4-0.5c0.2,0,0.3-0.1,0.4-0.1c0.7-0.2,1.3-0.4,1.8-0.6c0.2-0.1,0.3-0.1,0.4-0.2c0.4-0.2,0.8-0.4,1.2-0.7
				c0.2-0.1,0.3-0.2,0.4-0.4c0.5-0.4,0.7-0.9,0.7-1.4v-2.2C33.2,29.6,32.9,30,32.4,30.5z"/>
		</g>
		<g>
			<path class="st0" d="M34.5,19.8v5c0,0.5-0.2,0.9-0.7,1.4c-0.1,0.1-0.3,0.2-0.4,0.4c-0.3,0.2-0.7,0.5-1.2,0.7
				c-0.1,0.1-0.3,0.1-0.4,0.2c-0.5,0.2-1.2,0.4-1.8,0.6c-0.1,0-0.3,0.1-0.4,0.1c-0.7,0.2-1.5,0.4-2.4,0.5c-0.1,0-0.3,0.1-0.4,0.1
				c-0.7,0.1-1.4,0.2-2.2,0.3c-0.1,0-0.3,0-0.4,0c-0.5,0.1-1,0.1-1.6,0.1c-0.1,0-0.3,0-0.4,0c-0.7,0-1.4,0.1-2.1,0.1
				c-0.1,0-0.3,0-0.4,0h-0.3c-0.7,0-1.3,0-1.9,0c-0.2,0-0.3,0-0.4,0c-0.6,0-1.3-0.1-1.9-0.1c-0.2,0-0.3,0-0.5,0
				c-0.4,0-0.8-0.1-1.2-0.1c-0.2,0-0.3,0-0.4-0.1c-0.5-0.1-1-0.1-1.5-0.2c-0.2,0-0.3-0.1-0.4-0.1c-0.4-0.1-0.8-0.2-1.2-0.3
				c-0.2,0-0.3-0.1-0.4-0.1c-0.5-0.1-0.9-0.3-1.4-0.4c-0.2,0-0.3-0.1-0.4-0.2c-0.5-0.2-0.9-0.3-1.2-0.5c-0.2-0.1-0.3-0.2-0.5-0.2
				c-0.4-0.2-0.7-0.4-1-0.6c-0.2-0.1-0.3-0.3-0.5-0.5c-0.3-0.3-0.4-0.7-0.4-1.1c0-1.5,0-5,0-5H34.5z"/>
			<ellipse class="st1" cx="19.1" cy="19.8" rx="15.4" ry="4.1"/>
			<path class="st2" d="M31.7,19.3c0,1.5-5.7,2.8-12.6,2.8c-7,0-12.6-1.3-12.6-2.8c0-1.5,5.7-2.8,12.6-2.8
				C26.1,16.5,31.7,17.8,31.7,19.3z"/>
			<path class="st3" d="M6.9,20c1.4-1.2,6.3-2.1,12.2-2.1c5.9,0,10.9,0.9,12.2,2.1c0.3-0.2,0.4-0.5,0.4-0.7c0-1.5-5.7-2.8-12.6-2.8
				c-7,0-12.6,1.3-12.6,2.8C6.5,19.5,6.6,19.8,6.9,20z"/>
			<g>
				<path class="st3" d="M4.6,22.1v4.3c-0.2-0.1-0.3-0.3-0.5-0.5v-3.8H4.6z"/>
				<path class="st3" d="M6,23.4v3.9c-0.2-0.1-0.3-0.2-0.5-0.2v-3.7H6z"/>
				<path class="st3" d="M7.7,24.1V28c-0.2,0-0.3-0.1-0.4-0.2v-3.7H7.7z"/>
				<path class="st3" d="M9.5,24.7v3.8c-0.2,0-0.3-0.1-0.4-0.1v-3.7H9.5z"/>
				<path class="st3" d="M11.2,25.2v3.7c-0.2,0-0.3-0.1-0.4-0.1v-3.6H11.2z"/>
				<path class="st3" d="M13.1,25.5v3.6c-0.2,0-0.3,0-0.4-0.1v-3.6H13.1z"/>
				<path class="st3" d="M14.8,25.5v3.8c-0.2,0-0.3,0-0.5,0v-3.8H14.8z"/>
				<path class="st3" d="M17.2,25.5v4c-0.2,0-0.3,0-0.4,0v-3.9H17.2z"/>
				<path class="st3" d="M19.9,25.2v4.3c-0.1,0-0.3,0-0.4,0v-4.3H19.9z"/>
				<path class="st3" d="M22.4,24.7v4.7c-0.1,0-0.3,0-0.4,0v-4.7H22.4z"/>
				<path class="st3" d="M24.4,24.7v4.5c-0.1,0-0.3,0-0.4,0v-4.6H24.4z"/>
				<path class="st3" d="M27,24.1v4.7c-0.1,0-0.3,0.1-0.4,0.1v-4.8H27z"/>
				<path class="st3" d="M29.9,23.6v4.5c-0.1,0-0.3,0.1-0.4,0.1v-4.6H29.9z"/>
				<path class="st3" d="M32.2,22.4v4.9c-0.1,0.1-0.3,0.1-0.4,0.2v-5.1H32.2z"/>
				<path class="st3" d="M33.8,21.6v4.7c-0.1,0.1-0.3,0.2-0.4,0.4v-5H33.8z"/>
			</g>
			<path class="st4" d="M33.8,24c-0.1,0.1-0.3,0.2-0.4,0.4c-0.3,0.2-0.7,0.5-1.2,0.7c-0.1,0.1-0.3,0.1-0.4,0.2
				c-0.5,0.2-1.2,0.4-1.8,0.6c-0.1,0-0.3,0.1-0.4,0.1c-0.7,0.2-1.5,0.4-2.4,0.5c-0.1,0-0.3,0.1-0.4,0.1c-0.7,0.1-1.4,0.2-2.2,0.3
				c-0.1,0-0.3,0-0.4,0c-0.5,0.1-1,0.1-1.6,0.1c-0.1,0-0.3,0-0.4,0c-0.7,0-1.4,0.1-2.1,0.1c-0.1,0-0.3,0-0.4,0h-0.3
				c-0.7,0-1.3,0-1.9,0c-0.2,0-0.3,0-0.4,0c-0.6,0-1.3-0.1-1.9-0.1c-0.2,0-0.3,0-0.5,0c-0.4,0-0.8-0.1-1.2-0.1c-0.2,0-0.3,0-0.4-0.1
				c-0.5-0.1-1-0.1-1.5-0.2c-0.2,0-0.3-0.1-0.4-0.1c-0.4-0.1-0.8-0.2-1.2-0.3c-0.2,0-0.3-0.1-0.4-0.1c-0.5-0.1-0.9-0.3-1.4-0.4
				c-0.2,0-0.3-0.1-0.4-0.2c-0.5-0.2-0.9-0.3-1.2-0.5c-0.2-0.1-0.3-0.2-0.5-0.2c-0.4-0.2-0.7-0.4-1-0.6c-0.2-0.1-0.3-0.3-0.5-0.5
				c-0.3-0.3-0.4-0.7-0.4-1.1c0,0.8,0,1.7,0,2.2c0,0.4,0.1,0.7,0.4,1.1c0.1,0.2,0.3,0.3,0.5,0.5c0.3,0.2,0.6,0.4,1,0.6
				c0.1,0.1,0.3,0.2,0.5,0.2c0.4,0.2,0.8,0.4,1.2,0.5c0.1,0.1,0.3,0.1,0.4,0.2c0.4,0.1,0.9,0.3,1.4,0.4c0.1,0,0.3,0.1,0.4,0.1
				c0.4,0.1,0.8,0.2,1.2,0.3c0.1,0,0.3,0.1,0.4,0.1c0.5,0.1,1,0.2,1.5,0.2c0.1,0,0.3,0,0.4,0.1c0.4,0,0.8,0.1,1.2,0.1
				c0.1,0,0.3,0,0.5,0c0.6,0.1,1.2,0.1,1.9,0.1c0.1,0,0.3,0,0.4,0c0.6,0,1.3,0,1.9,0h0.3c0.2,0,0.3,0,0.4,0c0.7,0,1.4,0,2.1-0.1
				c0.2,0,0.3,0,0.4,0c0.5,0,1.1-0.1,1.6-0.1c0.1,0,0.3,0,0.4,0c0.8-0.1,1.5-0.2,2.2-0.3c0.2,0,0.3-0.1,0.4-0.1
				c0.9-0.2,1.7-0.3,2.4-0.5c0.2,0,0.3-0.1,0.4-0.1c0.7-0.2,1.3-0.4,1.8-0.6c0.2-0.1,0.3-0.1,0.4-0.2c0.4-0.2,0.8-0.4,1.2-0.7
				c0.2-0.1,0.3-0.2,0.4-0.4c0.5-0.4,0.7-0.9,0.7-1.4v-2.2C34.5,23.1,34.2,23.6,33.8,24z"/>
		</g>
		<g>
			<path class="st0" d="M36.1,13.7v5c0,0.5-0.2,0.9-0.7,1.4c-0.1,0.1-0.3,0.2-0.4,0.4c-0.3,0.2-0.7,0.5-1.2,0.7
				c-0.1,0.1-0.3,0.1-0.4,0.2c-0.5,0.2-1.2,0.4-1.8,0.6c-0.1,0-0.3,0.1-0.4,0.1c-0.7,0.2-1.5,0.4-2.4,0.5c-0.1,0-0.3,0.1-0.4,0.1
				c-0.7,0.1-1.4,0.2-2.2,0.3c-0.1,0-0.3,0-0.4,0c-0.5,0.1-1,0.1-1.6,0.1c-0.1,0-0.3,0-0.4,0c-0.7,0-1.4,0.1-2.1,0.1
				c-0.1,0-0.3,0-0.4,0h-0.3c-0.7,0-1.3,0-1.9,0c-0.2,0-0.3,0-0.4,0c-0.6,0-1.3-0.1-1.9-0.1c-0.2,0-0.3,0-0.5,0
				c-0.4,0-0.8-0.1-1.2-0.1c-0.2,0-0.3,0-0.4-0.1c-0.5-0.1-1-0.1-1.5-0.2c-0.2,0-0.3-0.1-0.4-0.1c-0.4-0.1-0.8-0.2-1.2-0.3
				c-0.2,0-0.3-0.1-0.4-0.1c-0.5-0.1-0.9-0.3-1.4-0.4c-0.2,0-0.3-0.1-0.4-0.2c-0.5-0.2-0.9-0.3-1.2-0.5c-0.2-0.1-0.3-0.2-0.5-0.2
				c-0.4-0.2-0.7-0.4-1-0.6c-0.2-0.1-0.3-0.3-0.5-0.5c-0.3-0.3-0.4-0.7-0.4-1.1c0-1.5,0-5,0-5H36.1z"/>
			<path class="st1" d="M36.1,13.7c0,2.2-6.9,4.1-15.4,4.1S5.4,16,5.4,13.7c0-2.2,6.9-4.1,15.4-4.1S36.1,11.5,36.1,13.7z"/>
			<path class="st2" d="M33.4,13.2c0,1.5-5.7,2.8-12.6,2.8c-7,0-12.6-1.3-12.6-2.8c0-1.5,5.6-2.8,12.6-2.8
				C27.7,10.4,33.4,11.6,33.4,13.2z"/>
			<path class="st3" d="M8.5,13.9c1.4-1.2,6.3-2.1,12.2-2.1c5.9,0,10.9,0.9,12.2,2.1c0.3-0.2,0.4-0.5,0.4-0.7
				c0-1.5-5.7-2.8-12.6-2.8c-7,0-12.6,1.3-12.6,2.8C8.1,13.4,8.3,13.7,8.5,13.9z"/>
			<g>
				<path class="st3" d="M6.2,16v4.3c-0.2-0.1-0.3-0.3-0.5-0.5V16H6.2z"/>
				<path class="st3" d="M7.7,17.2v3.9c-0.2-0.1-0.3-0.2-0.5-0.2v-3.7H7.7z"/>
				<path class="st3" d="M9.4,18v3.8c-0.2,0-0.3-0.1-0.4-0.2V18H9.4z"/>
				<path class="st3" d="M11.2,18.5v3.8c-0.2,0-0.3-0.1-0.4-0.1v-3.7H11.2z"/>
				<path class="st3" d="M12.8,19v3.7c-0.2,0-0.3-0.1-0.4-0.1V19H12.8z"/>
				<path class="st3" d="M14.8,19.4V23c-0.2,0-0.3,0-0.4-0.1v-3.6H14.8z"/>
				<path class="st3" d="M16.5,19.4v3.8c-0.2,0-0.3,0-0.5,0v-3.8H16.5z"/>
				<path class="st3" d="M18.8,19.4v4c-0.2,0-0.3,0-0.4,0v-3.9H18.8z"/>
				<path class="st3" d="M21.5,19v4.3c-0.1,0-0.3,0-0.4,0V19H21.5z"/>
				<path class="st3" d="M24,18.5v4.7c-0.1,0-0.3,0-0.4,0v-4.7H24z"/>
				<path class="st3" d="M26,18.5v4.5c-0.1,0-0.3,0-0.4,0v-4.6H26z"/>
				<path class="st3" d="M28.7,18v4.7c-0.1,0-0.3,0.1-0.4,0.1V18H28.7z"/>
				<path class="st3" d="M31.6,17.5V22c-0.1,0-0.3,0.1-0.4,0.1v-4.6H31.6z"/>
				<path class="st3" d="M33.8,16.3v4.9c-0.1,0.1-0.3,0.1-0.4,0.2v-5.1H33.8z"/>
				<path class="st3" d="M35.4,15.5v4.7c-0.1,0.1-0.3,0.2-0.4,0.4v-5H35.4z"/>
			</g>
			<path class="st4" d="M35.4,17.9c-0.1,0.1-0.3,0.2-0.4,0.4c-0.3,0.2-0.7,0.5-1.2,0.7c-0.1,0.1-0.3,0.1-0.4,0.2
				c-0.5,0.2-1.2,0.4-1.8,0.6c-0.1,0-0.3,0.1-0.4,0.1c-0.7,0.2-1.5,0.4-2.4,0.5c-0.1,0-0.3,0.1-0.4,0.1c-0.7,0.1-1.4,0.2-2.2,0.3
				c-0.1,0-0.3,0-0.4,0c-0.5,0.1-1,0.1-1.6,0.1c-0.1,0-0.3,0-0.4,0c-0.7,0-1.4,0.1-2.1,0.1c-0.1,0-0.3,0-0.4,0h-0.3
				c-0.7,0-1.3,0-1.9,0c-0.2,0-0.3,0-0.4,0c-0.6,0-1.3-0.1-1.9-0.1c-0.2,0-0.3,0-0.5,0c-0.4,0-0.8-0.1-1.2-0.1c-0.2,0-0.3,0-0.4-0.1
				c-0.5-0.1-1-0.1-1.5-0.2c-0.2,0-0.3-0.1-0.4-0.1c-0.4-0.1-0.8-0.2-1.2-0.3c-0.2,0-0.3-0.1-0.4-0.1c-0.5-0.1-0.9-0.3-1.4-0.4
				c-0.2,0-0.3-0.1-0.4-0.2c-0.5-0.2-0.9-0.3-1.2-0.5c-0.2-0.1-0.3-0.2-0.5-0.2c-0.4-0.2-0.7-0.4-1-0.6c-0.2-0.1-0.3-0.3-0.5-0.5
				c-0.3-0.3-0.4-0.7-0.4-1.1c0,0.8,0,1.7,0,2.2c0,0.4,0.1,0.7,0.4,1.1c0.1,0.2,0.3,0.3,0.5,0.5c0.3,0.2,0.6,0.4,1,0.6
				c0.1,0.1,0.3,0.2,0.5,0.2c0.4,0.2,0.8,0.4,1.2,0.5c0.1,0.1,0.3,0.1,0.4,0.2c0.4,0.1,0.9,0.3,1.4,0.4c0.1,0,0.3,0.1,0.4,0.1
				c0.4,0.1,0.8,0.2,1.2,0.3c0.1,0,0.3,0.1,0.4,0.1c0.5,0.1,1,0.2,1.5,0.2c0.1,0,0.3,0,0.4,0.1c0.4,0,0.8,0.1,1.2,0.1
				c0.1,0,0.3,0,0.5,0c0.6,0.1,1.2,0.1,1.9,0.1c0.1,0,0.3,0,0.4,0c0.6,0,1.3,0,1.9,0h0.3c0.2,0,0.3,0,0.4,0c0.7,0,1.4,0,2.1-0.1
				c0.2,0,0.3,0,0.4,0c0.5,0,1.1-0.1,1.6-0.1c0.1,0,0.3,0,0.4,0c0.8-0.1,1.5-0.2,2.2-0.3c0.2,0,0.3-0.1,0.4-0.1
				c0.9-0.2,1.7-0.3,2.4-0.5c0.2,0,0.3-0.1,0.4-0.1c0.7-0.2,1.3-0.4,1.8-0.6c0.2-0.1,0.3-0.1,0.4-0.2c0.4-0.2,0.8-0.4,1.2-0.7
				c0.2-0.1,0.3-0.2,0.4-0.4c0.5-0.4,0.7-0.9,0.7-1.4v-2.2C36.1,17,35.9,17.5,35.4,17.9z"/>
		</g>
	</g>
</g>
<g>
	<path class="st5" d="M44,68.2c-0.2,0.2-0.4,0.3-0.6,0.5c-0.2,0.1-0.3,0.2-0.5,0.3c-0.4,0.2-0.8,0.5-1.2,0.7
		c-0.2,0.1-0.4,0.2-0.6,0.3c-0.8,0.4-1.6,0.6-2.5,0.8c-0.2,0.1-0.5,0.1-0.7,0.1c-0.5,0.1-1.1,0.2-1.6,0.2c-0.3,0-0.5,0-0.8,0
		c-0.6,0-1.2,0-1.8-0.1c-0.3,0-0.6-0.1-0.9-0.1c-0.7-0.1-1.4-0.3-2.1-0.6c-0.4-0.2-0.8-0.3-1.2-0.5c-1.7-0.8-3.3-2.1-4.6-3.7
		l-1.9-2.4l21-16.9c0,0,0.6,0.7,1.9,2.4c1.4,1.7,2.3,3.7,2.7,5.7c0.1,0.4,0.2,0.8,0.2,1.2c0.1,0.7,0.1,1.5,0.1,2.2
		c0,0.3,0,0.6-0.1,0.9c-0.1,1-0.3,2-0.7,2.9c-0.1,0.2-0.2,0.4-0.3,0.7c-0.3,0.8-0.8,1.6-1.3,2.4c-0.1,0.2-0.2,0.4-0.4,0.5
		c-0.4,0.5-0.9,1.1-1.4,1.5c-0.1,0.1-0.3,0.3-0.4,0.4C44.3,67.9,44.1,68,44,68.2z"/>
	<g>
		<path class="st6" d="M43.4,68.6c-0.2,0.1-0.3,0.2-0.5,0.3L40.5,66l0.5-0.4L43.4,68.6z"/>
		<path class="st6" d="M41.7,69.7c-0.2,0.1-0.4,0.2-0.6,0.3l-2.9-3.6l0.5-0.4L41.7,69.7z"/>
		<path class="st6" d="M38.7,70.8c-0.2,0.1-0.5,0.1-0.7,0.1l-2.9-3.6l0.5-0.4L38.7,70.8z"/>
		<path class="st6" d="M36.4,71.1c-0.3,0-0.5,0-0.8,0l-3-3.7l0.5-0.4L36.4,71.1z"/>
		<path class="st6" d="M33.8,71c-0.3,0-0.6-0.1-0.9-0.1l-2.8-3.5l0.5-0.4L33.8,71z"/>
		<path class="st6" d="M30.8,70.3c-0.4-0.2-0.8-0.3-1.2-0.5l-2.4-3l0.5-0.4L30.8,70.3z"/>
		<path class="st6" d="M44.5,67.7l-2.6-3.2l0.5-0.4l2.5,3.1C44.8,67.5,44.6,67.6,44.5,67.7z"/>
		<path class="st6" d="M46.3,65.8l-2.6-3.2l0.5-0.4l2.5,3.1C46.6,65.4,46.4,65.6,46.3,65.8z"/>
		<path class="st6" d="M48,62.8l-2.6-3.2l0.5-0.4l2.4,3C48.1,62.4,48.1,62.6,48,62.8z"/>
		<path class="st6" d="M48.9,59.3L46,55.7l0.5-0.4l2.5,3.1C49,58.7,48.9,59,48.9,59.3z"/>
		<path class="st6" d="M48.9,56.2l-2.8-3.5l0.5-0.4l2.1,2.6C48.8,55.3,48.9,55.8,48.9,56.2z"/>
	</g>
	<path class="st2" d="M42,65.8c-5.8,4.7-14.3,3.7-19-2.1c-4.7-5.8-3.7-14.3,2.1-19c5.8-4.7,14.3-3.7,18.9,2.1
		C48.8,52.6,47.9,61.1,42,65.8z"/>
	<path class="st7" d="M40.6,64c-4.8,3.9-11.9,3.1-15.7-1.7c-3.9-4.8-3.1-11.9,1.7-15.7c4.8-3.9,11.9-3.1,15.7,1.7
		C46.2,53.1,45.4,60.1,40.6,64z"/>
	<path class="st8" d="M26.2,62.4c-3.9-4.8-3.1-11.9,1.7-15.7c2.2-1.8,4.9-2.6,7.6-2.5c-3-0.5-6.3,0.2-8.9,2.3
		c-4.8,3.9-5.6,10.9-1.7,15.7c2.1,2.6,5.1,4,8.2,4.2C30.4,66,28,64.7,26.2,62.4z"/>
	<g>
		<path class="st5" d="M26.7,61l1.8-1.5c-0.8-1.1-1.4-2.4-1.4-3.4l1.5-0.5c0.1,1,0.5,2.2,1.3,3.2c1,1.3,2.4,1.5,3.5,0.7
			c1-0.8,1-2,0.5-3.7c-0.8-2.4-0.8-4.2,0.7-5.4c1.5-1.2,3.5-1,5.1,0.4l1.8-1.5l0.9,1.1l-1.7,1.4c0.8,1.1,1.1,2.1,1.2,2.8l-1.5,0.5
			c-0.1-0.5-0.3-1.6-1.2-2.7c-1.1-1.4-2.4-1.2-3.1-0.7c-0.9,0.7-0.9,1.8-0.3,3.9c0.7,2.5,0.5,4.1-1,5.4c-1.4,1.1-3.5,1.2-5.3-0.4
			l-1.9,1.5L26.7,61z"/>
	</g>
</g>
<g>
	<path class="st5" d="M37.9,59.9c0,0.3,0,0.5,0,0.8c0,0.2,0,0.4-0.1,0.6c0,0.5-0.1,0.9-0.2,1.3c0,0.2-0.1,0.4-0.1,0.6
		c-0.2,0.9-0.5,1.7-0.9,2.4c-0.1,0.2-0.2,0.4-0.3,0.6c-0.3,0.5-0.5,0.9-0.9,1.4c-0.1,0.2-0.3,0.4-0.5,0.6c-0.4,0.5-0.8,0.9-1.2,1.3
		c-0.2,0.2-0.5,0.4-0.7,0.6c-0.6,0.5-1.1,0.9-1.8,1.3c-0.4,0.2-0.8,0.4-1.2,0.6c-1.7,0.8-3.7,1.3-5.7,1.3h-3.1v-27c0,0,0.9,0,3.1,0
		c2.2,0,4.3,0.5,6.1,1.5c0.4,0.2,0.7,0.4,1.1,0.6c0.6,0.4,1.2,0.8,1.8,1.3c0.2,0.2,0.4,0.4,0.6,0.6c0.7,0.7,1.3,1.5,1.8,2.3
		c0.1,0.2,0.2,0.4,0.4,0.6c0.4,0.8,0.8,1.6,1.1,2.5c0.1,0.2,0.1,0.4,0.2,0.6c0.2,0.7,0.3,1.3,0.3,2c0,0.2,0,0.4,0.1,0.6
		C37.9,59.4,37.9,59.6,37.9,59.9z"/>
	<g>
		<path class="st6" d="M37.8,60.6c0,0.2,0,0.4-0.1,0.6H34v-0.6H37.8z"/>
		<path class="st6" d="M37.6,62.6c0,0.2-0.1,0.4-0.1,0.6h-4.6v-0.6H37.6z"/>
		<path class="st6" d="M36.6,65.6c-0.1,0.2-0.2,0.4-0.3,0.6h-4.6v-0.6H36.6z"/>
		<path class="st6" d="M35.4,67.6c-0.1,0.2-0.3,0.4-0.5,0.6h-4.7v-0.6H35.4z"/>
		<path class="st6" d="M33.7,69.6c-0.2,0.2-0.5,0.4-0.7,0.6h-4.4v-0.6H33.7z"/>
		<path class="st6" d="M31.3,71.5c-0.4,0.2-0.8,0.4-1.2,0.6h-3.8v-0.6H31.3z"/>
		<path class="st6" d="M37.8,59.2h-4.1v-0.6h4C37.8,58.8,37.8,59,37.8,59.2z"/>
		<path class="st6" d="M37.4,56.5h-4.1v-0.6h4C37.3,56.1,37.4,56.3,37.4,56.5z"/>
		<path class="st6" d="M36.2,53.4h-4.2v-0.6h3.8C36,53,36.1,53.2,36.2,53.4z"/>
		<path class="st6" d="M34,50.4h-4.6v-0.6h4C33.6,50,33.8,50.2,34,50.4z"/>
		<path class="st6" d="M31.6,48.5h-4.5v-0.6h3.4C30.9,48,31.3,48.3,31.6,48.5z"/>
	</g>
	<path class="st2" d="M34.8,59.9c0,7.4-6,13.5-13.5,13.5s-13.5-6-13.5-13.5c0-7.4,6-13.5,13.5-13.5S34.8,52.4,34.8,59.9z"/>
	<path class="st7" d="M32.5,59.9c0,6.2-5,11.2-11.2,11.2c-6.2,0-11.2-5-11.2-11.2c0-6.2,5-11.2,11.2-11.2
		C27.5,48.7,32.5,53.7,32.5,59.9z"/>
	<path class="st8" d="M22.3,70.1c-6.2,0-11.2-5-11.2-11.2c0-2.9,1.1-5.5,2.8-7.4c-2.3,2-3.8,5-3.8,8.4c0,6.2,5,11.2,11.2,11.2
		c3.3,0,6.3-1.5,8.4-3.8C27.7,69,25.1,70.1,22.3,70.1z"/>
	<g>
		<path class="st5" d="M21.4,68.9v-2.3c-1.3,0-2.7-0.4-3.5-1l0.6-1.5c0.8,0.6,2,1,3.3,1c1.6,0,2.7-0.9,2.7-2.3c0-1.3-0.9-2-2.6-2.7
			c-2.3-0.9-3.8-2-3.8-4c0-1.9,1.4-3.4,3.5-3.7V50H23v2.2c1.4,0,2.3,0.4,3,0.8l-0.6,1.5c-0.5-0.3-1.4-0.8-2.9-0.8
			c-1.8,0-2.4,1.1-2.4,2c0,1.2,0.9,1.8,2.9,2.6c2.4,1,3.6,2.2,3.6,4.2c0,1.8-1.3,3.5-3.6,3.9v2.4H21.4z"/>
	</g>
</g>
</svg>
