<?xml version="1.0" encoding="utf-8"?>
<!-- Generator: Adobe Illustrator 23.0.6, SVG Export Plug-In . SVG Version: 6.00 Build 0)  -->
<svg version="1.1" id="Layer_1" xmlns="http://www.w3.org/2000/svg" xmlns:xlink="http://www.w3.org/1999/xlink" x="0px" y="0px"
	 viewBox="0 0 149 48" style="enable-background:new 0 0 149 48;" xml:space="preserve">
<path d="M0.1,0h15.1c12.8,0,22.6,9.4,22.6,21.5c0,11.5-8.8,21.7-22.6,21.7H0.1V0z M8,41.2V2H2.8v39.2C2.8,41.1,8,41.1,8,41.2z
	 M14.9,33.5c6.8,0,11.9-4.8,11.9-12c0-6.7-4.5-11.9-11.9-11.9h-4.2v24L14.9,33.5L14.9,33.5z"/>
<path d="M41,5h28.6v9.4h-18v7.8h16.6v9.2H51.5v7.8h18.8v9.1H41V5z M48.9,41.1V12.3L43.6,7v39.2L48.9,41.1z"/>
<path d="M94.2,0.5H96l21.2,44.6h-11.4l-2.2-4.5H86.6l-2.1,4.5H73.2L94.2,0.5z M82.7,43.2l4.7-10h-5.8l-4.8,10H82.7z M100.1,33.2
	l-5-11H95l-5,11H100.1z M107.6,43.2h6l-4.8-10H103L107.6,43.2z"/>
<path d="M119.8,3h10.6v34.1h18.8v9.1h-29.4L119.8,3L119.8,3z M127.7,39.1V5h-5.3v39.2L127.7,39.1z"/>
</svg>
