<?xml version="1.0" encoding="utf-8"?>
<!-- Generator: Adobe Illustrator 23.0.6, SVG Export Plug-In . SVG Version: 6.00 Build 0)  -->
<svg version="1.1" id="Layer_1" xmlns="http://www.w3.org/2000/svg" xmlns:xlink="http://www.w3.org/1999/xlink" x="0px" y="0px"
	 viewBox="0 0 119 46" style="enable-background:new 0 0 119 46;" xml:space="preserve">
<g>
	<path d="M2.78,29.59l0.07,15.63c0,0.14-0.14,0.29-0.29,0.29h-1.8c-0.14,0-0.29-0.14-0.29-0.29l0.14-15.63L0.47,8.7
		c0-0.14,0.14-0.29,0.29-0.29h1.8c0.14,0,0.29,0.14,0.29,0.29L2.7,16.7c2.02-4.39,5.9-9.15,12.24-9.15c5.47,0,9.29,2.81,10.73,8.86
		c2.02-4.32,5.9-8.86,12.1-8.86c7.06,0,11.38,4.68,11.38,15.12v6.91l0.07,15.63c0,0.14-0.14,0.29-0.29,0.29h-1.8
		c-0.14,0-0.29-0.14-0.29-0.29l0.07-15.63v-6.55c0-9.94-3.74-13.47-9.43-13.47c-5.26,0-8.57,3.82-11.38,9.65
		c0.14,1.08,0.22,2.23,0.22,3.46v6.91l0.07,15.63c0,0.14-0.14,0.29-0.29,0.29h-1.8c-0.14,0-0.29-0.14-0.29-0.29l0.07-15.63v-6.55
		c0-9.94-3.74-13.47-9.43-13.47c-5.62,0-9,4.32-11.88,10.8V29.59z"/>
	<path d="M79.1,45.5c-0.14,0-0.29-0.14-0.29-0.29l0.14-7.92c-2.23,5.47-6.55,8.86-12.75,8.86c-9.5,0-14.62-8.35-14.62-19.15
		c0-10.66,5.11-19.3,14.62-19.3c6.12,0,10.51,3.1,12.75,8.93L78.81,8.7c0-0.14,0.14-0.29,0.29-0.29h1.73c0.14,0,0.29,0.14,0.29,0.29
		l-0.14,17.43l0.14,19.08c0,0.14-0.14,0.29-0.29,0.29H79.1z M66.5,44.27c7.49,0,12.53-5.69,12.6-16.92
		c0.07-11.16-4.61-17.79-12.53-17.79c-8.78,0-12.67,7.78-12.67,17.07C53.9,36.14,57.71,44.27,66.5,44.27z"/>
	<path d="M85.57,45.5c-0.14,0-0.29-0.14-0.29-0.29l0.14-15.63L85.29,8.7c0-0.14,0.14-0.29,0.29-0.29h1.8c0.14,0,0.29,0.14,0.29,0.29
		l-0.14,7.99c2.02-4.39,6.12-9.15,12.75-9.15c7.42,0,11.95,4.68,11.95,15.12v6.91l0.07,15.63c0,0.14-0.14,0.29-0.29,0.29h-1.8
		c-0.14,0-0.29-0.14-0.29-0.29l0.07-15.63v-6.55c0-9.94-3.96-13.47-10.01-13.47c-5.83,0-9.5,4.25-12.38,10.8v9.22l0.07,15.63
		c0,0.14-0.14,0.29-0.29,0.29H85.57z"/>
	<path d="M116.75,4.1c-0.14,0-0.29-0.14-0.29-0.29V0.28c0-0.14,0.14-0.29,0.29-0.29h1.8c0.14,0,0.29,0.14,0.29,0.29v3.53
		c0,0.14-0.14,0.29-0.29,0.29H116.75z M116.75,45.5c-0.14,0-0.29-0.14-0.29-0.29l0.07-19.51L116.46,8.7c0-0.14,0.14-0.29,0.29-0.29
		h1.8c0.14,0,0.29,0.14,0.29,0.29l-0.07,16.92l0.07,19.59c0,0.14-0.14,0.29-0.29,0.29H116.75z"/>
</g>
</svg>
