<?xml version="1.0" encoding="utf-8"?>
<!-- Generator: Adobe Illustrator 23.0.6, SVG Export Plug-In . SVG Version: 6.00 Build 0)  -->
<svg version="1.1" id="Layer_1" xmlns="http://www.w3.org/2000/svg" xmlns:xlink="http://www.w3.org/1999/xlink" x="0px" y="0px"
	 viewBox="0 0 81 98" style="enable-background:new 0 0 81 98;" xml:space="preserve">
<style type="text/css">
	.st0{fill:#ED9A21;}
</style>
<g>
	<path class="st0" d="M0.02,1.96c0-0.98,0.49-1.46,1.46-1.46h2.73c0.97,0,1.46,0.49,1.46,1.46V27.9c2.34-2.34,5.56-3.61,8.38-3.61
		c4.1,0,7.6,2.53,7.6,8.29V70.7c0,5.75-3.51,8.29-7.6,8.29c-2.83,0-6.04-1.27-8.38-3.61v1.66c0,0.97-0.49,1.46-1.46,1.46H1.49
		c-0.98,0-1.46-0.49-1.46-1.46V1.96z M16.01,35.41c0-4.68-1.07-6.04-4.68-6.04c-3.61,0-5.65,1.85-5.65,6.53v31.49
		c0,4.68,2.05,6.53,5.65,6.53c3.61,0,4.68-1.36,4.68-6.04V35.41z"/>
	<path class="st0" d="M45.46,49.06V35.41c0-4.68-1.56-6.04-5.17-6.04c-3.61,0-5.17,1.36-5.17,6.04v5.17c0,0.97-0.49,1.46-1.46,1.46
		h-2.73c-0.98,0-1.46-0.49-1.46-1.46v-5.17c0-7.02,1.76-11.11,10.82-11.11c9.07,0,10.72,4.09,10.82,11.11v41.63
		c0,0.97-0.49,1.46-1.46,1.46h-2.73c-0.98,0-1.46-0.49-1.46-1.46v-1.66c-2.34,2.34-5.56,3.61-8.38,3.61c-4.1,0-7.6-2.54-7.6-8.29
		V60.17c0-7.02,1.76-11.11,10.82-11.11H45.46z M40.29,54.13c-3.61,0-5.17,1.36-5.17,6.04v7.7c0,4.68,1.07,6.04,4.68,6.04
		c3.61,0,5.65-1.85,5.65-6.53V54.13H40.29z"/>
	<path class="st0" d="M58.91,26.24c0-0.98,0.49-1.46,1.46-1.46h2.73c0.97,0,1.46,0.49,1.46,1.46v1.66c2.34-2.34,5.56-3.61,8.38-3.61
		c4.1,0,7.6,2.53,7.6,8.29V70.7c0,5.75-3.51,8.29-7.6,8.29c-2.83,0-6.04-1.27-8.38-3.61v21.16c0,0.98-0.49,1.46-1.46,1.46h-2.73
		c-0.98,0-1.46-0.49-1.46-1.46V26.24z M74.9,35.41c0-4.68-1.07-6.04-4.68-6.04c-3.61,0-5.65,1.85-5.65,6.53v31.49
		c0,4.68,2.05,6.53,5.65,6.53c3.61,0,4.68-1.36,4.68-6.04V35.41z"/>
</g>
</svg>
