<?xml version="1.0" encoding="utf-8"?>
<!-- Generator: Adobe Illustrator 23.0.6, SVG Export Plug-In . SVG Version: 6.00 Build 0)  -->
<svg version="1.1" id="Layer_1" xmlns="http://www.w3.org/2000/svg" xmlns:xlink="http://www.w3.org/1999/xlink" x="0px" y="0px"
	 viewBox="0 0 119 99" style="enable-background:new 0 0 119 99;" xml:space="preserve">
<g>
	<path d="M35.72,49.4c1.35,0,2.02,0.67,2.02,2.02v28.12c0,12.24-2.96,19.24-18.7,19.24c-15.74,0-18.7-7-18.7-19.24V19.26
		c0-12.11,2.96-19.24,18.7-19.24c15.74,0,18.7,7.13,18.7,19.24v11.17c0,1.35-0.67,2.02-2.02,2.02h-4.31c-1.35,0-2.02-0.67-2.02-2.02
		V19.26c0-7.4-1.62-11.71-10.36-11.71c-8.75,0-10.36,4.31-10.36,11.71v60.28c0,7.4,1.62,11.71,10.36,11.71
		c8.74,0,10.36-4.31,10.36-11.71v-22.6h-9.28c-1.35,0-2.02-0.67-2.02-2.02v-3.5c0-1.34,0.67-2.02,2.02-2.02H35.72z"/>
	<path d="M52.4,2.71c3.09,0,5.25,2.15,5.25,5.25s-2.15,5.25-5.25,5.25s-5.25-2.15-5.25-5.25S49.31,2.71,52.4,2.71z M56.3,96.09
		c0,1.35-0.67,2.02-2.02,2.02h-3.77c-1.35,0-2.02-0.67-2.02-2.02v-70.1c0-1.35,0.67-2.02,2.02-2.02h3.77c1.34,0,2.02,0.67,2.02,2.02
		V96.09z"/>
	<path d="M95.59,28.68c3.5-3.36,7.54-5.38,12.92-5.38c5.65,0,10.5,3.5,10.5,11.44v61.35c0,1.35-0.67,2.02-2.02,2.02h-3.77
		c-1.35,0-2.02-0.67-2.02-2.02V38.64c0-6.46-1.48-8.34-6.46-8.34c-4.71,0-7.8,2.29-7.8,9.02v56.78c0,1.35-0.67,2.02-2.02,2.02h-3.77
		c-1.35,0-2.02-0.67-2.02-2.02V38.64c0-6.46-1.48-8.34-6.46-8.34c-4.98,0-7.8,2.56-7.8,9.02v56.78c0,1.35-0.67,2.02-2.02,2.02h-3.77
		c-1.35,0-2.02-0.67-2.02-2.02v-70.1c0-1.35,0.67-2.02,2.02-2.02h3.77c1.34,0,2.02,0.67,2.02,2.02v2.29
		c3.23-3.23,7.67-4.98,11.57-4.98C90.34,23.3,93.84,25.05,95.59,28.68z"/>
</g>
</svg>
