<?xml version="1.0" encoding="utf-8"?>
<!-- Generator: Adobe Illustrator 23.0.6, SVG Export Plug-In . SVG Version: 6.00 Build 0)  -->
<svg version="1.1" id="Layer_1" xmlns="http://www.w3.org/2000/svg" xmlns:xlink="http://www.w3.org/1999/xlink" x="0px" y="0px"
	 viewBox="0 0 55 53" style="enable-background:new 0 0 55 53;" xml:space="preserve">
<style type="text/css">
	.st0{fill:#FFFFFF;stroke:#333232;stroke-width:3;stroke-miterlimit:10;}
	.st1{fill:#333232;stroke:#333232;stroke-width:3;stroke-miterlimit:10;}
	.st2{fill:#FFFFFF;stroke:#4D4D4D;stroke-width:3;stroke-miterlimit:10;}
	.st3{fill:#FFFFFF;stroke:#C1C1C1;stroke-width:0.5;stroke-miterlimit:10;}
	.st4{fill:#FFFFFF;stroke:#DBDBDB;stroke-width:0.5;stroke-miterlimit:10;}
	.st5{fill:#FFFFFF;}
	.st6{fill:#3E893F;}
	.st7{fill:#3E893F;stroke:#52B552;stroke-width:0.5;stroke-miterlimit:10;}
	.st8{fill:#EFC825;}
	.st9{fill:#EFEA52;}
	.st10{fill:#EA9C68;stroke:#E5894A;stroke-miterlimit:10;}
	.st11{fill:#604C3E;}
	.st12{fill:#BA4E24;}
	.st13{fill:#846047;}
</style>
<line class="st0" x1="2.5" y1="19" x2="2.5" y2="35"/>
<line class="st0" x1="52.5" y1="19" x2="52.5" y2="35"/>
<path class="st1" d="M52.5,33.5c0,9.39-11.19,17-25,17s-25-7.61-25-17s11.19-17,25-17c13.53,0,24.55,7.31,24.99,16.43
	C52.5,33.12,52.5,33.31,52.5,33.5z"/>
<path class="st2" d="M52.5,19.5c0,9.39-11.19,17-25,17s-25-7.61-25-17s11.19-17,25-17c13.53,0,24.55,7.31,24.99,16.43
	C52.5,19.12,52.5,19.31,52.5,19.5z"/>
<path class="st2" d="M2.5,38.5"/>
<ellipse transform="matrix(0.9928 -0.1202 0.1202 0.9928 -0.369 3.8821)" class="st3" cx="32" cy="5" rx="2" ry="1"/>
<ellipse transform="matrix(0.866 -0.5 0.5 0.866 -5.5622 5.2417)" class="st3" cx="7" cy="13" rx="2" ry="1"/>
<ellipse transform="matrix(0.866 -0.5 0.5 0.866 -6.6962 5.0096)" class="st3" cx="6" cy="15" rx="2" ry="1"/>
<ellipse transform="matrix(0.9928 -0.1202 0.1202 0.9928 -0.2705 3.5143)" class="st3" cx="29" cy="4" rx="2" ry="1"/>
<ellipse transform="matrix(0.9785 -0.2063 0.2063 0.9785 -6.0992 7.5196)" class="st3" cx="33" cy="33" rx="2" ry="1"/>
<ellipse transform="matrix(0.9928 -0.1202 0.1202 0.9928 -2.9623 4.8829)" class="st3" cx="39" cy="27" rx="2" ry="1"/>
<ellipse transform="matrix(0.0746 -0.9972 0.9972 0.0746 10.0181 66.7959)" class="st3" cx="41" cy="28" rx="1" ry="2"/>
<ellipse transform="matrix(0.866 -0.5 0.5 0.866 -4.2942 5.9737)" class="st3" cx="9" cy="11" rx="2" ry="1"/>
<ellipse transform="matrix(0.9692 -0.2462 0.2462 0.9692 -3.5858 2.3241)" class="st3" cx="7.5" cy="15.5" rx="2" ry="1"/>
<ellipse transform="matrix(0.1602 -0.9871 0.9871 0.1602 27.6989 55.557)" class="st3" cx="46.5" cy="11.5" rx="1" ry="2"/>
<ellipse transform="matrix(0.4105 -0.9118 0.9118 0.4105 16.4399 51.4313)" class="st3" cx="48" cy="13" rx="1" ry="2"/>
<ellipse transform="matrix(0.9928 -0.1202 0.1202 0.9928 -1.0511 1.5712)" class="st3" cx="12.5" cy="9.5" rx="2" ry="1"/>
<ellipse transform="matrix(0.7923 -0.6101 0.6101 0.7923 -5.2445 8.5933)" class="st3" cx="10" cy="12" rx="2" ry="1"/>
<ellipse transform="matrix(0.9977 -0.0675 0.0675 0.9977 -0.6623 2.3862)" class="st3" cx="35" cy="11" rx="2" ry="1"/>
<ellipse class="st3" cx="37.5" cy="11.5" rx="2" ry="1"/>
<ellipse transform="matrix(0.1235 -0.9923 0.9923 0.1235 26.419 42.9103)" class="st3" cx="37.5" cy="6.5" rx="1" ry="2"/>
<ellipse class="st3" cx="17.5" cy="26.5" rx="2" ry="1"/>
<ellipse transform="matrix(0.866 -0.5 0.5 0.866 -3.1603 6.2058)" class="st3" cx="10" cy="9" rx="2" ry="1"/>
<ellipse class="st3" cx="35" cy="5" rx="2" ry="1"/>
<ellipse transform="matrix(0.1602 -0.9871 0.9871 0.1602 20.8772 37.5389)" class="st3" cx="32.5" cy="6.5" rx="1" ry="2"/>
<ellipse transform="matrix(0.9928 -0.1202 0.1202 0.9928 -0.528 2.2597)" class="st3" cx="18.47" cy="5.51" rx="1.97" ry="1"/>
<ellipse transform="matrix(0.9928 -0.1202 0.1202 0.9928 -0.67 1.9064)" class="st4" cx="15.47" cy="6.51" rx="1.97" ry="1"/>
<ellipse transform="matrix(0.1602 -0.9871 0.9871 0.1602 17.4416 45.5158)" class="st4" cx="35.47" cy="12.51" rx="1" ry="1.97"/>
<ellipse transform="matrix(0.1602 -0.9871 0.9871 0.1602 24.9997 54.3995)" class="st4" cx="44.47" cy="12.51" rx="1" ry="1.97"/>
<ellipse transform="matrix(0.1602 -0.9871 0.9871 0.1602 10.6793 49.5675)" class="st4" cx="34.47" cy="18.51" rx="1" ry="1.97"/>
<ellipse transform="matrix(0.1602 -0.9871 0.9871 0.1602 -11.0081 22.0764)" class="st4" cx="7.47" cy="17.51" rx="1" ry="1.97"/>
<ellipse transform="matrix(0.1602 -0.9871 0.9871 0.1602 3.3278 60.9266)" class="st4" cx="37.47" cy="28.51" rx="1" ry="1.97"/>
<ellipse transform="matrix(0.1602 -0.9871 0.9871 0.1602 -8.326 57.2289)" class="st4" cx="29.47" cy="33.51" rx="1" ry="1.97"/>
<ellipse transform="matrix(0.1602 -0.9871 0.9871 0.1602 -18.3595 33.4356)" class="st4" cx="10.47" cy="27.51" rx="1" ry="1.97"/>
<ellipse transform="matrix(0.9785 -0.2063 0.2063 0.9785 -2.8277 7.9022)" class="st4" cx="36.47" cy="17.51" rx="1.97" ry="1"/>
<ellipse transform="matrix(0.9785 -0.2063 0.2063 0.9785 -3.7519 9.0416)" class="st4" cx="41.47" cy="22.51" rx="1.97" ry="1"/>
<ellipse transform="matrix(0.9785 -0.2063 0.2063 0.9785 -4.419 2.6449)" class="st4" cx="10.47" cy="22.51" rx="1.97" ry="1"/>
<ellipse transform="matrix(0.9785 -0.2063 0.2063 0.9785 -1.6074 3.6032)" class="st4" cx="16.47" cy="9.51" rx="1.97" ry="1"/>
<ellipse transform="matrix(0.9785 -0.2063 0.2063 0.9785 -4.5557 9.334)" class="st4" cx="42.47" cy="26.51" rx="1.97" ry="1"/>
<ellipse transform="matrix(0.4105 -0.9118 0.9118 0.4105 -1.9731 41.963)" class="st4" cx="31.47" cy="22.51" rx="1" ry="1.97"/>
<ellipse transform="matrix(0.4105 -0.9118 0.9118 0.4105 -18.0543 29.0866)" class="st4" cx="13.47" cy="28.51" rx="1" ry="1.97"/>
<ellipse transform="matrix(0.4105 -0.9118 0.9118 0.4105 -20.1451 27.8524)" class="st4" cx="11.47" cy="29.51" rx="1" ry="1.97"/>
<ellipse transform="matrix(0.4105 -0.9118 0.9118 0.4105 14.1635 50.925)" class="st4" cx="46.47" cy="14.51" rx="1" ry="1.97"/>
<ellipse transform="matrix(0.4105 -0.9118 0.9118 0.4105 14.0624 36.7685)" class="st4" cx="35.47" cy="7.51" rx="1" ry="1.97"/>
<ellipse transform="matrix(0.2311 -0.9729 0.9729 0.2311 23.812 45.1467)" class="st4" cx="40.47" cy="7.51" rx="1" ry="1.97"/>
<ellipse transform="matrix(0.9785 -0.2063 0.2063 0.9785 -0.6744 4.5488)" class="st4" cx="21.47" cy="5.51" rx="1.97" ry="1"/>
<ellipse transform="matrix(0.9692 -0.2462 0.2462 0.9692 -2.6959 3.4558)" class="st4" cx="12.47" cy="12.51" rx="1.97" ry="1"/>
<ellipse transform="matrix(0.9692 -0.2462 0.2462 0.9692 -2.4189 3.6712)" class="st4" cx="13.47" cy="11.51" rx="1.97" ry="1"/>
<ellipse transform="matrix(0.1602 -0.9871 0.9871 0.1602 17.6328 31.7406)" class="st4" cx="27.47" cy="5.51" rx="1" ry="1.97"/>
<ellipse transform="matrix(0.1602 -0.9871 0.9871 0.1602 -13.0262 35.7043)" class="st4" cx="14.47" cy="25.51" rx="1" ry="1.97"/>
<ellipse transform="matrix(0.9928 -0.1202 0.1202 0.9928 -1.7734 1.6111)" class="st4" cx="12.47" cy="15.51" rx="1.97" ry="1"/>
<ellipse transform="matrix(0.9928 -0.1202 0.1202 0.9928 -1.8779 1.8623)" class="st3" cx="14.5" cy="16.5" rx="2" ry="1"/>
<ellipse transform="matrix(0.9928 -0.1202 0.1202 0.9928 -2.0199 1.509)" class="st3" cx="11.5" cy="17.5" rx="2" ry="1"/>
<path class="st5" d="M15,18"/>
<path class="st6" d="M29,10c0,0,2-2,4,0s1,3,1,3s1,2,0,3s1,4-3.5,3.5S26,16,26,16s0-2-1-2s-2-1-1-2s0-2,2.5-2.5S29,10,29,10"/>
<path class="st7" d="M32,12c0,0,2,0.5,2,2"/>
<path class="st7" d="M32,10c0,0,1,0.5,1,2"/>
<path class="st7" d="M31,11c0,0,1,0.5,1,2"/>
<path class="st7" d="M30.59,12.35c0,0,1.12-0.03,1.82,1.3"/>
<path class="st8" d="M21.76,26.14c0,0,5.89-0.94,4.32-4.98c-1.57-4.05-4.77-8.16-7.4-6.42s-5.94,4.25-5.98,6.9
	C12.65,24.28,17.82,27.42,21.76,26.14z"/>
<path class="st7" d="M26.86,9.78c0,0,2.32,0.33,2.43,1.83"/>
<path class="st9" d="M35.39,25.28c0,0-1.17-0.57-3.36-2.18c-2.19-1.6,3.68-5.03,3.68-5.03s4.31,1.98,5.67,3.67
	c1.36,1.69-5.64,4.38-5.87,3.43"/>
<path class="st7" d="M28.59,10.35c0,0,1.12-0.03,1.82,1.3"/>
<path class="st10" d="M16,17c0,0,1-5.5,5.5-5.5S27,12,27,14s-1,5-5,5S16,18,16,17z"/>
<path class="st11" d="M27.51,19.11c0,0,5.99-1,5.99,4.48s-7.32,2.49-7.32,2.49s-6.15-2.12,0-6.72"/>
<path class="st11" d="M27.51,20.22c0,0,5.99-1,5.99,4.48s-7.32,2.49-7.32,2.49s-6.15-2.12,0-6.72"/>
<path class="st10" d="M16,16c0,0,1-5.5,5.5-5.5S27,11,27,13s-1,5-5,5S16,17,16,16z"/>
<path class="st12" d="M33.47,14.25c0,0,2.53-2.75,5.53,0S38,19,38,19s-2,3-5,0S32.94,14.5,33.47,14.25z"/>
<path class="st13" d="M27.51,18c0,0,5.99-1,5.99,4.48s-7.32,2.49-7.32,2.49s-6.15-2.12,0-6.72"/>
</svg>
